<?xml version="1.0" encoding="UTF-8"?>
<svg version="1.1" xmlns="http://www.w3.org/2000/svg" width="1024" height="1024">
<path d="M0 0 C337.92 0 675.84 0 1024 0 C1024 337.92 1024 675.84 1024 1024 C686.08 1024 348.16 1024 0 1024 C0 686.08 0 348.16 0 0 Z " fill="#FEFEFE" transform="translate(0,0)"/>
<path d="M0 0 C211.07692308 0 211.07692308 0 219.44921875 2.19140625 C220.31611328 2.41376953 221.18300781 2.63613281 222.07617188 2.86523438 C222.93791016 3.09533203 223.79964844 3.32542969 224.6875 3.5625 C225.59177734 3.79646484 226.49605469 4.03042969 227.42773438 4.27148438 C229.62061537 4.84000908 231.81114656 5.41619853 234 6 C234 6.66 234 7.32 234 8 C234.99 8.0825 235.98 8.165 237 8.25 C240.71521553 8.77861784 243.51770508 10.11804221 246.80078125 11.87890625 C250.73781734 13.88588557 254.87982168 15.41271819 259 17 C259 17.66 259 18.32 259 19 C259.70125 19.2475 260.4025 19.495 261.125 19.75 C264.38414768 21.16702073 267.06231351 23.00237319 270 25 C272.313681 26.37141575 274.65301271 27.68568712 277 29 C277 29.66 277 30.32 277 31 C277.54398437 31.22042969 278.08796875 31.44085938 278.6484375 31.66796875 C281.76445612 33.43302249 284.12664345 35.78675096 286.625 38.3125 C287.14916504 38.84085449 287.67333008 39.36920898 288.21337891 39.91357422 C296.39870967 48.33156936 303.36438102 57.68877284 309 68 C309.56654297 69.02867187 309.56654297 69.02867187 310.14453125 70.078125 C314.7125278 78.76929446 319 90.14433199 319 100 C319.66 100 320.32 100 321 100 C327.14365269 124.61118012 326.19125007 152.69445778 316.98828125 176.33984375 C315.88391478 178.83949921 315.88391478 178.83949921 316 181 C316.95886875 179.77125097 317.91703899 178.54195687 318.875 177.3125 C319.51695312 176.48878906 320.15890625 175.66507813 320.8203125 174.81640625 C322.32435551 172.87301018 323.81857162 170.9219828 325.3046875 168.96484375 C330.03597777 162.73658857 334.90600773 156.68735811 340.0144043 150.76391602 C343.78897342 146.34910866 347.15353861 141.7408928 350.44140625 136.94921875 C350.95574219 136.30597656 351.47007812 135.66273438 352 135 C352.66 135 353.32 135 354 135 C354.185625 134.34 354.37125 133.68 354.5625 133 C356.21006521 129.56160303 358.26915467 127.29893041 360.81640625 124.4921875 C363.45651347 121.47897031 365.915631 118.34863281 368.375 115.1875 C372.47972429 109.92192153 376.6534038 104.72331697 380.89453125 99.56640625 C386.67753543 92.51736404 392.30686887 85.34677794 397.93310547 78.17260742 C400.60499102 74.76777992 403.29085084 71.37533338 406 68 C412.86036783 59.44554134 419.62242201 50.81319824 426.3125 42.125 C426.72983398 41.58431885 427.14716797 41.0436377 427.57714844 40.48657227 C429.81943138 37.5720547 431.98954697 34.61808781 434.125 31.625 C437.23697953 27.4640386 440.95851804 24.23777816 445 21 C445.639375 20.48566406 446.27875 19.97132813 446.9375 19.44140625 C462.15992968 7.62560902 480.29796244 -0.15146596 499.76147461 -0.11352539 C501.71270485 -0.11341209 501.71270485 -0.11341209 503.70335388 -0.11329651 C505.10301757 -0.10819141 506.50268086 -0.10297544 507.90234375 -0.09765625 C509.34965465 -0.09578866 510.79696619 -0.09436637 512.24427795 -0.09336853 C516.0335976 -0.08957018 519.82287826 -0.0797631 523.61218262 -0.06866455 C527.48689242 -0.05839247 531.3616086 -0.05385854 535.23632812 -0.04882812 C542.82423643 -0.03813816 550.41211273 -0.02109434 558 0 C558.07142857 8.78571429 558.07142857 8.78571429 557 12 C556.34 12 555.68 12 555 12 C554.9175 13.27875 554.835 14.5575 554.75 15.875 C554.12707748 21.4991005 552.65755716 28.34949206 548.52734375 32.46875 C546.53994237 34.46123425 545.6207374 36.58048321 544.4375 39.125 C542.22096317 43.88951841 542.22096317 43.88951841 540 45 C539.67 45.99 539.34 46.98 539 48 C538.34 48 537.68 48 537 48 C536.72381836 48.58628174 536.44763672 49.17256348 536.16308594 49.77661133 C535.05273633 51.89918772 533.84587396 53.67666293 532.390625 55.57421875 C531.8857959 56.23808594 531.3809668 56.90195312 530.86083984 57.5859375 C530.3292627 58.27945313 529.79768555 58.97296875 529.25 59.6875 C525.30866637 64.86586026 521.5013198 70.04634118 518.0859375 75.59375 C517.72757813 76.0578125 517.36921875 76.521875 517 77 C516.34 77 515.68 77 515 77 C515 77.99 515 78.98 515 80 C513.515 80.99 513.515 80.99 512 82 C510.35310911 84.53895678 508.92399723 87.1425052 507.5 89.8125 C506.7575 90.8953125 506.7575 90.8953125 506 92 C505.01 92 504.02 92 503 92 C502.71769531 92.57878906 502.43539063 93.15757812 502.14453125 93.75390625 C499.12142855 99.68661634 495.71155701 104.28844299 491 109 C490.32295897 110.14883734 489.67811251 111.31710819 489.0625 112.5 C487.64804887 115.16147743 486.24412963 116.82317281 483.875 118.6875 C481.26316981 120.78831993 480.13699245 121.93012038 479 125 C478.34 125 477.68 125 477 125 C476.814375 125.66 476.62875 126.32 476.4375 127 C474.73244375 130.55837825 472.49788918 132.98718958 469.86328125 135.89453125 C467.02284393 139.10416587 464.53398799 142.54760896 462 146 C460.93796515 147.39618728 459.87547003 148.79202457 458.8125 150.1875 C457.20153158 152.32432858 455.78581375 154.36840035 454.4375 156.6875 C453 159 453 159 450.73828125 161.2265625 C447.78963168 164.21306919 445.27701114 167.34715443 442.75 170.6875 C442.30398438 171.26822266 441.85796875 171.84894531 441.3984375 172.44726562 C438.98745765 175.58741914 438.98745765 175.58741914 437 179 C436.34 179 435.68 179 435 179 C434.690625 179.61875 434.38125 180.2375 434.0625 180.875 C433.375 182.25 432.6875 183.625 432 185 C431.34 185 430.68 185 430 185 C429.7215625 185.57234375 429.443125 186.1446875 429.15625 186.734375 C428.01726208 188.96617566 426.80063617 191.10870874 425.5 193.25 C425.0771875 193.95640625 424.654375 194.6628125 424.21875 195.390625 C423.8165625 195.92171875 423.414375 196.4528125 423 197 C422.34 197 421.68 197 421 197 C420.75636719 197.556875 420.51273438 198.11375 420.26171875 198.6875 C418.23838615 202.39589907 415.34642969 205.38658866 412.58203125 208.5625 C410.82171622 210.79037315 410.82171622 210.79037315 411 212.96484375 C412.39807187 215.81013845 414.20694423 218.0843821 416.1875 220.5625 C417.09952895 221.71988091 418.00956608 222.87883322 418.91796875 224.0390625 C419.65926025 224.98507324 419.65926025 224.98507324 420.41552734 225.95019531 C425.17343073 232.10541208 429.72885739 238.41775725 434.31787109 244.69921875 C435.40437884 246.18532165 436.4930924 247.6698155 437.58447266 249.15234375 C439.0001369 251.07620699 440.40760288 253.00576645 441.8125 254.9375 C442.22693359 255.49816162 442.64136719 256.05882324 443.06835938 256.63647461 C445.03231181 259.35880577 446.50663117 261.64347432 447 265 C447.66 265 448.32 265 449 265 C450.6640625 267.01953125 450.6640625 267.01953125 452.625 269.8125 C453.70201172 271.33037109 453.70201172 271.33037109 454.80078125 272.87890625 C455.52652344 273.90886719 456.25226563 274.93882812 457 276 C458.26731013 277.75255311 459.53808516 279.50260646 460.8125 281.25 C461.47378906 282.15878906 462.13507813 283.06757812 462.81640625 284.00390625 C469.72520739 293.48342409 476.67731429 302.92605936 483.72949219 312.29956055 C487.15943002 316.86369871 490.5302017 321.46677902 493.875 326.09375 C496.55107681 329.75367858 499.27435479 333.37691196 502 337 C506.03172294 342.36084865 510.02368978 347.74599928 513.95703125 353.1796875 C520.29243438 361.92569335 526.6977812 370.61790447 533.1875 379.25 C534.19284206 380.59104559 535.19805374 381.93218894 536.203125 383.2734375 C537.91364576 385.55606594 539.63236555 387.83128849 541.359375 390.1015625 C547.99700602 398.96005503 552.02779484 407.52928858 555.3125 418.0625 C555.57949707 418.90159912 555.84649414 419.74069824 556.12158203 420.60522461 C556.36634277 421.42772705 556.61110352 422.25022949 556.86328125 423.09765625 C557.08282471 423.82476807 557.30236816 424.55187988 557.52856445 425.30102539 C558.20971758 429.20063588 558.08783164 433.05180189 558 437 C549.71504478 437.04658237 541.43014536 437.08199963 533.14509106 437.10362434 C529.29695661 437.11400927 525.44891254 437.12807028 521.60083008 437.15087891 C517.87903787 437.17279796 514.15733195 437.18460828 510.43548012 437.18975449 C509.02389482 437.19341636 507.61231361 437.20056579 506.20076561 437.21146011 C495.03552213 437.29411369 484.87756425 436.52041361 474.5 432.25 C473.87343506 431.9926709 473.24687012 431.7353418 472.60131836 431.47021484 C466.84771578 429.05157758 461.38319902 426.15605431 456 423 C456 422.34 456 421.68 456 421 C455.01 420.690625 455.01 420.690625 454 420.375 C446.51974353 416.94654912 441.68172226 411.76633101 436.76171875 405.26953125 C435.12555653 403.05018941 435.12555653 403.05018941 433.45703125 401.51171875 C431.56733441 399.55109495 430.38739407 397.33925178 429 395 C427.79744893 393.43748353 426.56672411 391.89635094 425.3125 390.375 C422.47772568 386.87929469 419.75404442 383.34043191 417.125 379.6875 C413.83327184 375.11494376 410.43571466 370.63768845 406.98828125 366.18164062 C402.10574623 359.86089665 397.32797577 353.46242851 392.54541016 347.06591797 C389.9712085 343.62470242 387.39158989 340.18755251 384.8125 336.75 C383.808568 335.41147765 382.80466116 334.07293642 381.80078125 332.734375 C381.32463379 332.09951172 380.84848633 331.46464844 380.35791016 330.81054688 C378.40527344 328.20703125 376.45263672 325.60351562 374.5 323 C373.79101562 322.05511719 373.08203125 321.11023438 372.3515625 320.13671875 C370.05024394 317.06701974 367.75244247 313.99471586 365.45532227 310.921875 C363.90844628 308.85714326 362.35496939 306.79751167 360.80078125 304.73828125 C359.11790656 302.50552852 357.47497143 300.26075212 355.85546875 297.98046875 C354.96794922 296.75263672 354.96794922 296.75263672 354.0625 295.5 C353.57910156 294.8090625 353.09570312 294.118125 352.59765625 293.40625 C351.01574228 291.73138608 351.01574228 291.73138608 348.30859375 291.78125 C347.54675781 291.8534375 346.78492188 291.925625 346 292 C345.58681519 292.87724731 345.58681519 292.87724731 345.1652832 293.7722168 C344.04401222 295.91585764 342.81866225 297.72253762 341.35546875 299.64453125 C340.84306641 300.32193359 340.33066406 300.99933594 339.80273438 301.69726562 C339.26970703 302.39529297 338.73667969 303.09332031 338.1875 303.8125 C336.62055184 305.87529331 335.05605331 307.93959069 333.50146484 310.01171875 C332.52722028 311.30184034 331.53866046 312.58132162 330.53369141 313.84765625 C327.57477404 317.6949936 326.38417796 320.41670317 326 325.375 C324.35050743 339.8812851 319.70942504 357.20013382 311 369 C310.32061291 370.18026856 309.65443682 371.36821647 309 372.5625 C307.20547695 375.64683649 305.2302115 378.23146158 303 381 C302.67 381.99 302.34 382.98 302 384 C301.34 384 300.68 384 300 384 C299.7834375 384.69480469 299.566875 385.38960937 299.34375 386.10546875 C297.62542452 389.80686172 295.27558943 392.36119496 292.5 395.3125 C292.00113281 395.86228516 291.50226563 396.41207031 290.98828125 396.97851562 C289.70501929 398.36326881 288.35677617 399.68719343 287 401 C286.34 401 285.68 401 285 401 C285 401.66 285 402.32 285 403 C284.34 403 283.68 403 283 403 C283 403.66 283 404.32 283 405 C281.65820313 406.26513672 281.65820313 406.26513672 279.78125 407.6796875 C279.09546875 408.19660156 278.4096875 408.71351563 277.703125 409.24609375 C276.97609375 409.78363281 276.2490625 410.32117188 275.5 410.875 C274.80390625 411.40480469 274.1078125 411.93460938 273.390625 412.48046875 C261.97487593 421 261.97487593 421 257 421 C256.67 421.99 256.34 422.98 256 424 C188.52946083 460.80211228 17.47026473 437 0 437 C0 292.79 0 148.58 0 0 Z " fill="#E5417F" transform="translate(233,293)"/>
<path d="M0 0 C211.4 0 211.4 0 222 3 C222 3.33 222 3.66 222 4 C220.06242096 3.85522064 218.12494176 3.70910502 216.1875 3.5625 C215.10855469 3.48128906 214.02960938 3.40007812 212.91796875 3.31640625 C210.88432325 3.15217366 208.85043028 2.98312195 206.82303143 2.75434208 C198.08506206 1.81355723 189.36950829 1.86634286 180.5949707 1.88647461 C178.8593801 1.88675716 177.12378938 1.88659742 175.38819885 1.8860321 C170.70717072 1.88574678 166.02616855 1.89160051 161.34514642 1.89860606 C156.44178415 1.90488388 151.53842121 1.90544689 146.63505554 1.90663147 C137.36351594 1.90973178 128.09198821 1.91792755 118.82045382 1.92798096 C108.2593372 1.93918259 97.69822 1.94466273 87.13709891 1.94967639 C65.42472599 1.96011132 43.71236375 1.97768545 22 2 C23.09699219 2.19698486 24.19398438 2.39396973 25.32421875 2.59692383 C26.77868148 2.86259787 28.2331066 3.12847789 29.6875 3.39453125 C30.7693457 3.58795105 30.7693457 3.58795105 31.87304688 3.78527832 C36.85100074 4.70159688 41.34762761 5.96458708 46 8 C46 8.66 46 9.32 46 10 C46.55816406 10.11730469 47.11632812 10.23460937 47.69140625 10.35546875 C58.46720392 13.36394018 66.33237265 21.31478059 74 29 C74.83917969 29.82757813 75.67835938 30.65515625 76.54296875 31.5078125 C86.24437355 41.62666157 92.00067889 53.67432684 96 67 C96.24621094 67.80308594 96.49242187 68.60617187 96.74609375 69.43359375 C98.19537412 75.20073013 98.08244031 80.92758344 98.04296875 86.83203125 C98.03986694 87.71427368 98.03676514 88.59651611 98.03356934 89.50549316 C98.02551067 91.6703427 98.01318148 93.8351756 98 96 C99.20554535 95.99555878 100.4110907 95.99111755 101.65316772 95.98654175 C113.04033745 95.94591575 124.42749237 95.91597728 135.81471825 95.89637566 C141.6683391 95.88595937 147.52190122 95.87183956 153.37548828 95.84912109 C159.02946166 95.82731584 164.6833787 95.81541518 170.3373909 95.81024551 C172.48943594 95.80656353 174.64147807 95.79937366 176.79349899 95.78853989 C179.81861675 95.77392287 182.84350469 95.77202632 185.86865234 95.77294922 C186.74907196 95.76575867 187.62949158 95.75856812 188.53659058 95.75115967 C194.56025764 95.77091438 200.13891722 96.62534165 206 98 C206 98.66 206 99.32 206 100 C206.86625 100.0825 207.7325 100.165 208.625 100.25 C215.8328426 101.8517428 221.47229044 107.35003765 226 113 C227.69943338 116.23892009 228.89777317 119.51870932 230 123 C230.35707031 123.95003906 230.71414063 124.90007812 231.08203125 125.87890625 C233.51955561 134.16648906 233.09288687 144.29732111 229 152 C226.54691963 155.84265759 224.01542292 159.57483808 221 163 C220.34 163 219.68 163 219 163 C219 163.66 219 164.32 219 165 C217.56705502 165.84114171 216.12845595 166.67265687 214.6875 167.5 C213.88699219 167.9640625 213.08648437 168.428125 212.26171875 168.90625 C210 170 210 170 207 170 C207 170.66 207 171.32 207 172 C201.19636942 173.99287442 196.04212073 174.27483056 189.93383789 174.22705078 C188.45463867 174.22748886 188.45463867 174.22748886 186.94555664 174.22793579 C183.70449857 174.22654878 180.46367389 174.21101709 177.22265625 174.1953125 C174.96821722 174.19158014 172.71377656 174.18873422 170.45933533 174.18673706 C164.5393726 174.17911819 158.61950875 174.15948465 152.69958496 174.1373291 C145.5893025 174.11322645 138.47898689 174.10408138 131.36867523 174.09242249 C120.57904816 174.07305931 109.78963782 174.03472438 99 174 C99 204.69 99 235.38 99 267 C105.99574219 266.95359375 112.99148438 266.9071875 120.19921875 266.859375 C124.6517077 266.83891818 129.10413808 266.81966105 133.55664062 266.8046875 C140.61185863 266.78084805 147.66686745 266.75275552 154.72192383 266.69824219 C160.41483148 266.65453314 166.10751455 266.63081014 171.80057716 266.62049103 C173.96412499 266.61314445 176.12766162 266.59879922 178.2911129 266.57707977 C189.89278624 266.46532186 200.14255887 266.45861506 211 271 C211.93595505 271.37332458 212.8719101 271.74664917 213.83622742 272.13128662 C214.55027237 272.41796204 215.26431732 272.70463745 216 273 C216 273.66 216 274.32 216 275 C216.87398438 275.39058594 216.87398438 275.39058594 217.765625 275.7890625 C220.14656439 277.07943175 221.8178497 278.48413496 223.75 280.375 C224.36359375 280.96023438 224.9771875 281.54546875 225.609375 282.1484375 C227 284 227 284 227 288 C227.66 288 228.32 288 229 288 C231.65999925 292.63696312 231.33074692 296.89908295 231.3125 302.125 C231.32861328 303.02476562 231.34472656 303.92453125 231.36132812 304.8515625 C231.36724902 313.09345439 229.92546853 320.99865319 225.125 327.875 C224.65320313 328.57367187 224.18140625 329.27234375 223.6953125 329.9921875 C221.68578097 332.37213958 219.44995705 334.07263555 217 336 C216.10803925 336.77093491 215.21607849 337.54186981 214.29708862 338.33616638 C203.16246931 346.85178698 192.43375265 346.08643188 178.8828125 345.66015625 C176.57118085 345.62086074 174.2594766 345.58564476 171.94772339 345.55430603 C165.90655576 345.46158505 159.8679687 345.31400712 153.82824707 345.15441895 C147.64782204 345.00101353 141.46655398 344.90027911 135.28515625 344.79492188 C123.18871775 344.58107639 111.09435127 344.30918459 99 344 C99.11119164 347.33394127 99.24149734 350.66688349 99.375 354 C99.4059375 354.93457031 99.436875 355.86914062 99.46875 356.83203125 C99.70743521 362.52069537 100.51932359 367.51066308 102 373 C102 374.32 102 375.64 102 377 C102.66 377 103.32 377 104 377 C104.10054688 377.6084375 104.20109375 378.216875 104.3046875 378.84375 C108.37687628 397.81010872 122.73054826 412.16866035 138 423 C140.89690771 424.85163173 143.6311523 426.36936429 146.875 427.5 C152.0558579 429.36706389 157.10839762 431.45636676 162 434 C162 434.33 162 434.66 162 435 C161.17632463 434.99907821 160.35264925 434.99815641 159.50401402 434.99720669 C139.49187306 434.97515321 119.47973419 434.95858931 99.46758366 434.94818783 C89.78998949 434.94302447 80.11240342 434.93598103 70.43481445 434.92456055 C62.00299669 434.91461491 53.57118479 434.90814686 45.13936132 434.90591151 C40.67192608 434.90460419 36.2045076 434.90151705 31.73707771 434.89426994 C27.5371584 434.88751162 23.33726287 434.88538265 19.13733864 434.88689232 C17.59131491 434.88661591 16.04529044 434.88460967 14.49927139 434.88079453 C12.39764224 434.8758602 10.29610428 434.87700072 8.19447327 434.87974548 C7.01550004 434.87882369 5.83652681 434.8779019 4.62182713 434.87695217 C2.07388228 434.70172445 2.07388228 434.70172445 1 436 C69.64 436 138.28 436 209 436 C209 436.33 209 436.66 209 437 C140.03 437 71.06 437 0 437 C0 292.79 0 148.58 0 0 Z " fill="#F59344" transform="translate(233,293)"/>
<path d="M0 0 C1.95123024 0.0001133 1.95123024 0.0001133 3.94187927 0.00022888 C5.34154296 0.00533398 6.74120625 0.01054995 8.14086914 0.01586914 C9.58818004 0.01773673 11.03549158 0.01915902 12.48280334 0.02015686 C16.27212299 0.02395522 20.06140365 0.03376229 23.85070801 0.04486084 C27.72541781 0.05513292 31.60013399 0.05966685 35.47485352 0.06469727 C43.06276182 0.07538723 50.65063812 0.09243105 58.23852539 0.11352539 C58.30995396 8.89923968 58.30995396 8.89923968 57.23852539 12.11352539 C56.57852539 12.11352539 55.91852539 12.11352539 55.23852539 12.11352539 C55.15602539 13.39227539 55.07352539 14.67102539 54.98852539 15.98852539 C54.36560287 21.61262589 52.89608255 28.46301745 48.76586914 32.58227539 C46.77846776 34.57475964 45.85926279 36.6940086 44.67602539 39.23852539 C42.45948856 44.0030438 42.45948856 44.0030438 40.23852539 45.11352539 C39.90852539 46.10352539 39.57852539 47.09352539 39.23852539 48.11352539 C38.57852539 48.11352539 37.91852539 48.11352539 37.23852539 48.11352539 C36.96234375 48.69980713 36.68616211 49.28608887 36.40161133 49.89013672 C35.29126172 52.01271311 34.08439935 53.79018832 32.62915039 55.68774414 C31.87190674 56.68354492 31.87190674 56.68354492 31.09936523 57.69946289 C30.56778809 58.39297852 30.03621094 59.08649414 29.48852539 59.80102539 C25.54719176 64.97938565 21.73984519 70.15986657 18.32446289 75.70727539 C17.96610352 76.17133789 17.60774414 76.63540039 17.23852539 77.11352539 C16.57852539 77.11352539 15.91852539 77.11352539 15.23852539 77.11352539 C15.23852539 78.10352539 15.23852539 79.09352539 15.23852539 80.11352539 C14.24852539 80.77352539 13.25852539 81.43352539 12.23852539 82.11352539 C10.5916345 84.65248217 9.16252262 87.25603059 7.73852539 89.92602539 C6.99602539 91.00883789 6.99602539 91.00883789 6.23852539 92.11352539 C5.24852539 92.11352539 4.25852539 92.11352539 3.23852539 92.11352539 C2.9562207 92.69231445 2.67391602 93.27110352 2.38305664 93.86743164 C-0.64004606 99.80014173 -4.0499176 104.40196838 -8.76147461 109.11352539 C-9.43851564 110.26236274 -10.0833621 111.43063358 -10.69897461 112.61352539 C-12.11342574 115.27500282 -13.51734498 116.9366982 -15.88647461 118.80102539 C-18.4983048 120.90184532 -19.62448216 122.04364577 -20.76147461 125.11352539 C-21.42147461 125.11352539 -22.08147461 125.11352539 -22.76147461 125.11352539 C-22.94709961 125.77352539 -23.13272461 126.43352539 -23.32397461 127.11352539 C-25.02903085 130.67190364 -27.26358543 133.10071497 -29.89819336 136.00805664 C-32.73863068 139.21769126 -35.22748662 142.66113435 -37.76147461 146.11352539 C-38.82350946 147.50971267 -39.88600458 148.90554996 -40.94897461 150.30102539 C-42.55994303 152.43785397 -43.97566086 154.48192574 -45.32397461 156.80102539 C-46.76147461 159.11352539 -46.76147461 159.11352539 -49.02319336 161.34008789 C-51.97184293 164.32659458 -54.48446347 167.46067982 -57.01147461 170.80102539 C-57.45749023 171.38174805 -57.90350586 171.9624707 -58.36303711 172.56079102 C-60.77401696 175.70094453 -60.77401696 175.70094453 -62.76147461 179.11352539 C-63.42147461 179.11352539 -64.08147461 179.11352539 -64.76147461 179.11352539 C-65.07084961 179.73227539 -65.38022461 180.35102539 -65.69897461 180.98852539 C-66.38647461 182.36352539 -67.07397461 183.73852539 -67.76147461 185.11352539 C-68.42147461 185.11352539 -69.08147461 185.11352539 -69.76147461 185.11352539 C-70.03991211 185.68586914 -70.31834961 186.25821289 -70.60522461 186.84790039 C-71.74421253 189.07970105 -72.96083843 191.22223413 -74.26147461 193.36352539 C-74.89569336 194.42313477 -74.89569336 194.42313477 -75.54272461 195.50415039 C-75.94491211 196.03524414 -76.34709961 196.56633789 -76.76147461 197.11352539 C-77.42147461 197.11352539 -78.08147461 197.11352539 -78.76147461 197.11352539 C-79.00510742 197.67040039 -79.24874023 198.22727539 -79.49975586 198.80102539 C-81.52308846 202.50942446 -84.41504492 205.50011405 -87.17944336 208.67602539 C-88.93975838 210.90389854 -88.93975838 210.90389854 -88.76147461 213.07836914 C-87.36340274 215.92366384 -85.55453038 218.19790749 -83.57397461 220.67602539 C-82.66194566 221.8334063 -81.75190853 222.99235862 -80.84350586 224.15258789 C-80.34931152 224.78326172 -79.85511719 225.41393555 -79.34594727 226.0637207 C-74.58804388 232.21893747 -70.03261722 238.53128264 -65.44360352 244.81274414 C-64.35709577 246.29884704 -63.26838221 247.78334089 -62.17700195 249.26586914 C-60.76133771 251.18973238 -59.35387173 253.11929184 -57.94897461 255.05102539 C-57.53454102 255.61168701 -57.12010742 256.17234863 -56.69311523 256.75 C-54.7291628 259.47233116 -53.25484344 261.75699971 -52.76147461 265.11352539 C-52.10147461 265.11352539 -51.44147461 265.11352539 -50.76147461 265.11352539 C-49.09741211 267.13305664 -49.09741211 267.13305664 -47.13647461 269.92602539 C-46.4184668 270.93793945 -45.70045898 271.94985352 -44.96069336 272.99243164 C-44.23495117 274.02239258 -43.50920898 275.05235352 -42.76147461 276.11352539 C-41.49416448 277.8660785 -40.22338945 279.61613185 -38.94897461 281.36352539 C-38.28768555 282.27231445 -37.62639648 283.18110352 -36.94506836 284.11743164 C-30.03626722 293.59694948 -23.08416032 303.03958476 -16.03198242 312.41308594 C-12.60204459 316.9772241 -9.23127291 321.58030441 -5.88647461 326.20727539 C-3.2103978 329.86720397 -0.48711982 333.49043735 2.23852539 337.11352539 C6.27024833 342.47437404 10.26221517 347.85952467 14.19555664 353.29321289 C20.53095977 362.03921874 26.93630659 370.73142986 33.42602539 379.36352539 C34.43136745 380.70457099 35.43657913 382.04571433 36.44165039 383.38696289 C38.15217115 385.66959134 39.87089095 387.94481388 41.59790039 390.21508789 C48.23553141 399.07358042 52.26632023 407.64281397 55.55102539 418.17602539 C55.81802246 419.01512451 56.08501953 419.85422363 56.36010742 420.71875 C56.60486816 421.54125244 56.84962891 422.36375488 57.10180664 423.21118164 C57.3213501 423.93829346 57.54089355 424.66540527 57.76708984 425.41455078 C58.44824297 429.31416127 58.32635703 433.16532728 58.23852539 437.11352539 C49.95357017 437.16010777 41.66867075 437.19552502 33.38361645 437.21714973 C29.535482 437.22753466 25.68743793 437.24159567 21.83935547 437.2644043 C18.11756326 437.28632335 14.39585734 437.29813368 10.67400551 437.30327988 C9.26242021 437.30694175 7.850839 437.31409118 6.439291 437.3249855 C-4.72595248 437.40763908 -14.88391036 436.633939 -25.26147461 432.36352539 C-26.20132202 431.97753174 -26.20132202 431.97753174 -27.16015625 431.58374023 C-32.91375883 429.16510297 -38.37827559 426.2695797 -43.76147461 423.11352539 C-43.76147461 422.45352539 -43.76147461 421.79352539 -43.76147461 421.11352539 C-44.75147461 420.80415039 -44.75147461 420.80415039 -45.76147461 420.48852539 C-53.24173108 417.06007451 -58.07975235 411.8798564 -62.99975586 405.38305664 C-64.63591808 403.1637148 -64.63591808 403.1637148 -66.30444336 401.62524414 C-68.1941402 399.66462034 -69.37408054 397.45277717 -70.76147461 395.11352539 C-71.96402568 393.55100892 -73.1947505 392.00987634 -74.44897461 390.48852539 C-77.28374893 386.99282008 -80.00743019 383.4539573 -82.63647461 379.80102539 C-85.92820277 375.22846915 -89.32575995 370.75121384 -92.77319336 366.29516602 C-97.65572838 359.97442204 -102.43349884 353.5759539 -107.21606445 347.17944336 C-109.79026611 343.73822781 -112.36988472 340.3010779 -114.94897461 336.86352539 C-115.95290661 335.52500304 -116.95681345 334.18646181 -117.96069336 332.84790039 C-118.43684082 332.21303711 -118.91298828 331.57817383 -119.40356445 330.92407227 C-121.35620117 328.32055664 -123.30883789 325.71704102 -125.26147461 323.11352539 C-125.97045898 322.16864258 -126.67944336 321.22375977 -127.40991211 320.25024414 C-129.71123067 317.18054513 -132.00903214 314.10824125 -134.30615234 311.03540039 C-135.85302833 308.97066865 -137.40650522 306.91103706 -138.96069336 304.85180664 C-140.64356805 302.61905391 -142.28650318 300.37427751 -143.90600586 298.09399414 C-144.49768555 297.27543945 -145.08936523 296.45688477 -145.69897461 295.61352539 C-146.18237305 294.92258789 -146.66577148 294.23165039 -147.16381836 293.51977539 C-148.74573233 291.84491147 -148.74573233 291.84491147 -151.45288086 291.89477539 C-152.2147168 291.96696289 -152.97655273 292.03915039 -153.76147461 292.11352539 C-154.17465942 292.99077271 -154.17465942 292.99077271 -154.59619141 293.88574219 C-155.71746239 296.02938303 -156.94281236 297.83606302 -158.40600586 299.75805664 C-158.9184082 300.43545898 -159.43081055 301.11286133 -159.95874023 301.81079102 C-160.49176758 302.50881836 -161.02479492 303.2068457 -161.57397461 303.92602539 C-165.38074318 308.93740799 -169.12753937 313.97496632 -172.76147461 319.11352539 C-173.80801334 315.97390921 -173.84845095 313.87870519 -173.78881836 310.59008789 C-173.7750415 309.49269287 -173.76126465 308.39529785 -173.74707031 307.26464844 C-173.73119873 306.10102783 -173.71532715 304.93740723 -173.69897461 303.73852539 C-173.64121261 294.61399309 -173.75919274 286.04295633 -175.76147461 277.11352539 C-175.97932617 276.02297852 -176.19717773 274.93243164 -176.42163086 273.80883789 C-177.88448218 266.8862737 -179.96358253 260.59497324 -182.76147461 254.11352539 C-183.11983398 253.18024414 -183.47819336 252.24696289 -183.84741211 251.28540039 C-188.21389813 240.09078522 -194.35933679 230.32774795 -202.19506836 221.23461914 C-203.80500924 219.0545745 -204.63791374 217.82112009 -204.76147461 215.11352539 C-203.57397461 213.21118164 -203.57397461 213.21118164 -201.76147461 211.17602539 C-196.41503842 204.7068376 -192.36182031 197.33261859 -189.38647461 189.48852539 C-187.23463964 185.01932968 -184.2207536 181.58994138 -181.03100586 177.81274414 C-178.64141927 174.97074012 -176.41891679 172.04535826 -174.21069336 169.06274414 C-170.08838762 163.51818736 -165.78646879 158.12693139 -161.38647461 152.80102539 C-157.25028816 147.79219584 -153.40456061 142.61988991 -149.60913086 137.35180664 C-148.9994043 136.61317383 -148.38967773 135.87454102 -147.76147461 135.11352539 C-147.10147461 135.11352539 -146.44147461 135.11352539 -145.76147461 135.11352539 C-145.48303711 134.12352539 -145.48303711 134.12352539 -145.19897461 133.11352539 C-143.55140939 129.67512842 -141.49231994 127.4124558 -138.94506836 124.60571289 C-136.30496114 121.5924957 -133.84584361 118.4621582 -131.38647461 115.30102539 C-127.28175032 110.03544692 -123.1080708 104.83684236 -118.86694336 99.67993164 C-113.08393918 92.63088943 -107.45460574 85.46030333 -101.82836914 78.28613281 C-99.15648359 74.88130532 -96.47062377 71.48885877 -93.76147461 68.11352539 C-86.90110678 59.55906673 -80.1390526 50.92672363 -73.44897461 42.23852539 C-72.82297363 41.42750366 -72.82297363 41.42750366 -72.18432617 40.60009766 C-69.94204323 37.68558009 -67.77192764 34.7316132 -65.63647461 31.73852539 C-62.52449508 27.57756399 -58.80295657 24.35130356 -54.76147461 21.11352539 C-53.80241211 20.34202148 -53.80241211 20.34202148 -52.82397461 19.55493164 C-37.60154493 7.73913441 -19.46351217 -0.03794057 0 0 Z " fill="#2F96CB" transform="translate(732.761474609375,292.886474609375)"/>
<path d="M0 0 C7.69835335 13.30129691 13.11298262 26.85749826 16 42 C16.20496094 42.9178125 16.40992188 43.835625 16.62109375 44.78125 C18.93817868 56.67029267 18.25838046 68.94970513 18 81 C17.98598145 81.72880371 17.97196289 82.45760742 17.95751953 83.20849609 C17.72602607 92.17469141 15.59994193 100.45393464 13 109 C12.71334473 109.97235596 12.71334473 109.97235596 12.42089844 110.96435547 C9.92763266 119.35779527 6.81929414 126.67093495 2 134 C1.28164679 135.26519648 0.57225983 136.53555748 -0.125 137.8125 C-1.87644948 140.78996412 -3.8388226 143.31715909 -6 146 C-6.33 146.99 -6.66 147.98 -7 149 C-7.66 149 -8.32 149 -9 149 C-9.32484375 150.04220703 -9.32484375 150.04220703 -9.65625 151.10546875 C-11.37457548 154.80686172 -13.72441057 157.36119496 -16.5 160.3125 C-16.99886719 160.86228516 -17.49773437 161.41207031 -18.01171875 161.97851562 C-19.29498071 163.36326881 -20.64322383 164.68719343 -22 166 C-22.66 166 -23.32 166 -24 166 C-24 166.66 -24 167.32 -24 168 C-24.66 168 -25.32 168 -26 168 C-26 168.66 -26 169.32 -26 170 C-27.34179688 171.26513672 -27.34179688 171.26513672 -29.21875 172.6796875 C-29.90453125 173.19660156 -30.5903125 173.71351563 -31.296875 174.24609375 C-32.02390625 174.78363281 -32.7509375 175.32117188 -33.5 175.875 C-34.19609375 176.40480469 -34.8921875 176.93460938 -35.609375 177.48046875 C-47.02512407 186 -47.02512407 186 -52 186 C-52.33 186.99 -52.66 187.98 -53 189 C-58.61504009 192.06274914 -64.49818213 193.83326692 -70.625 195.5625 C-71.32165771 195.76020996 -72.01831543 195.95791992 -72.73608398 196.16162109 C-75.14821528 196.81758237 -77.57086921 197.40981175 -80 198 C-81.00011643 198.2527686 -82.00023287 198.5055372 -83.03065586 198.76596546 C-94.13975525 201.30538221 -104.89931216 201.40537099 -116.25561523 201.34057617 C-118.35632312 201.33972823 -120.45703189 201.34020831 -122.55773926 201.34190369 C-128.21584094 201.34275852 -133.8737488 201.32521623 -139.53180575 201.30418181 C-145.46146565 201.28532906 -151.3911308 201.28365783 -157.32081604 201.28010559 C-168.52951264 201.27081027 -179.73812064 201.2462307 -190.94677836 201.21605712 C-203.71591551 201.18243461 -216.48505706 201.16600741 -229.25422752 201.15097082 C-255.50286899 201.11967876 -281.75142577 201.06635761 -308 201 C-308 192.42 -308 183.84 -308 175 C-307.67 175 -307.34 175 -307 175 C-307 183.25 -307 191.5 -307 200 C-254.53 199.67 -202.06 199.34 -148 199 C-150.97 198.01 -153.94 197.02 -157 196 C-158.68756133 195.03567924 -160.35666496 194.03789581 -162 193 C-163.03125 192.608125 -164.0625 192.21625 -165.125 191.8125 C-170.6652662 189.51413629 -175.28579823 185.63866537 -180 182 C-180.65355469 181.50371094 -181.30710937 181.00742187 -181.98046875 180.49609375 C-191.53084322 172.82519801 -203.66278441 158.23992404 -205.0625 145.5625 C-205.041875 144.386875 -205.02125 143.21125 -205 142 C-205.66 142 -206.32 142 -207 142 C-209.70088336 134.23496035 -210.20275668 127.19855512 -210.09375 119.04296875 C-210.08698242 118.07435913 -210.08021484 117.10574951 -210.07324219 116.10778809 C-210.05570723 113.73837716 -210.03112964 111.36926472 -210 109 C-208.73483047 109.02442673 -207.46966095 109.04885345 -206.16615295 109.07402039 C-194.17818697 109.29808722 -182.19065179 109.46241378 -170.20105839 109.56993389 C-164.03849836 109.62707349 -157.87764337 109.70443122 -151.71606445 109.82983398 C-145.75715608 109.95033751 -139.79987564 110.01532881 -133.83984184 110.04364967 C-131.57889648 110.06380167 -129.31802909 110.10315168 -127.05778694 110.16303062 C-112.66576365 110.52875643 -101.96050676 109.22520226 -90.6884594 99.6574955 C-84.13285093 93.22210739 -79.39193282 85.02225291 -78.87060547 75.68164062 C-78.86947754 74.84826172 -78.86834961 74.01488281 -78.8671875 73.15625 C-78.86525391 71.78146484 -78.86525391 71.78146484 -78.86328125 70.37890625 C-78.86714844 69.42886719 -78.87101563 68.47882813 -78.875 67.5 C-78.87113281 66.54996094 -78.86726562 65.59992188 -78.86328125 64.62109375 C-78.86457031 63.70457031 -78.86585938 62.78804687 -78.8671875 61.84375 C-78.86887939 60.59368164 -78.86887939 60.59368164 -78.87060547 59.31835938 C-78.99535442 57.08323482 -79.37859275 55.14499663 -80 53 C-80.66 53 -81.32 53 -82 53 C-81.34 50.69 -80.68 48.38 -80 46 C-78.35 46.66 -76.7 47.32 -75 48 C-75.99 46.02 -75.99 46.02 -77 44 C-76.01902344 43.78085937 -75.03804687 43.56171875 -74.02734375 43.3359375 C-46.26845093 36.91135996 -24.80468277 22.8275765 -5.3046875 2.140625 C-3 0 -3 0 0 0 Z " fill="#EA6C38" transform="translate(542,528)"/>
<path d="M0 0 C13.43211708 0.682989 24.78107014 7.08801764 36 14 C37.03253906 14.6290625 38.06507813 15.258125 39.12890625 15.90625 C61.70778515 30.27195131 77.68374759 51.92885743 84 78 C85.87180915 88.4010071 86.20877499 99.86702635 83 110 C82.45988281 110.48984375 81.91976562 110.9796875 81.36328125 111.484375 C79.78756157 112.88929656 79.78756157 112.88929656 80.03515625 114.84765625 C81.37248814 117.83093508 83.29916487 119.97071659 85.4375 122.4375 C88.39993335 125.85642389 90.56755031 128.68699576 92 133 C91.50371094 133.42410156 91.00742187 133.84820313 90.49609375 134.28515625 C87.1057402 137.2123116 83.79859778 140.15063409 80.6875 143.375 C76.13871352 147.99648398 71.07593659 151.97755968 66 156 C65.30777344 156.55945313 64.61554688 157.11890625 63.90234375 157.6953125 C51.28941392 167.58882214 32.31598656 177 16 177 C16.598125 177.598125 17.19625 178.19625 17.8125 178.8125 C19.54166667 180.54166667 21.27083333 182.27083333 23 184 C19.59687262 182.94124926 16.98646769 181.99097846 14 180 C13.67 181.65 13.34 183.3 13 185 C12.34 184.319375 11.68 183.63875 11 182.9375 C8.02809161 179.93989787 4.81463908 177.25212981 1.57421875 174.55078125 C1.05472656 174.03902344 0.53523438 173.52726563 0 173 C0 172.34 0 171.68 0 171 C-1.07106743 170.81513031 -1.07106743 170.81513031 -2.16377258 170.62652588 C-5 170 -5 170 -7.52604675 169.04876709 C-18.44936245 164.94071771 -29.40555023 165.39513315 -40.92578125 165.390625 C-43.12681786 165.37562083 -45.32784331 165.35888904 -47.52885437 165.34051514 C-53.28100136 165.29708078 -59.03299652 165.27689577 -64.78527832 165.26177979 C-71.70893853 165.23865699 -78.63243333 165.18625522 -85.55596161 165.13883972 C-96.03735058 165.07029694 -106.51826605 165.0386281 -117 165 C-117 134.31 -117 103.62 -117 72 C-106.18541016 71.90912109 -106.18541016 71.90912109 -95.15234375 71.81640625 C-90.58137433 71.77590524 -86.0104107 71.73512857 -81.43945312 71.69335938 C-74.18629952 71.62710664 -66.93314683 71.56186752 -59.67993164 71.50268555 C-53.8314205 71.45490125 -47.98296628 71.40255366 -42.13452339 71.34705925 C-39.90466291 71.32669933 -37.67478685 71.30797597 -35.44489861 71.29092598 C-32.31859598 71.26674073 -29.19239963 71.23670596 -26.06616211 71.20532227 C-25.14690445 71.1995668 -24.22764679 71.19381134 -23.28053284 71.18788147 C-18.421845 71.13254295 -13.79217466 70.81320131 -9 70 C-9 69.34 -9 68.68 -9 68 C-7.56328432 67.35242375 -6.12559584 66.70700547 -4.6875 66.0625 C-3.48673828 65.52302734 -3.48673828 65.52302734 -2.26171875 64.97265625 C0 64 0 64 3 63 C3 62.34 3 61.68 3 61 C4.18623636 59.8476561 5.37298708 58.69583635 6.5625 57.546875 C13.88618444 49.6659537 15.42803399 40.99678439 15.25 30.50390625 C14.4480325 19.26383047 9.53992819 10.94918789 1.35546875 3.4453125 C0 2 0 2 0 0 Z " fill="#CE2B70" transform="translate(449,395)"/>
<path d="M0 0 C24.05637253 -0.08021762 24.05637253 -0.08021762 34.34765625 -0.09765625 C41.35696458 -0.10959004 48.36622042 -0.1236751 55.37548828 -0.15087891 C61.02946166 -0.17268416 66.6833787 -0.18458482 72.3373909 -0.18975449 C74.48943594 -0.19343647 76.64147807 -0.20062634 78.79349899 -0.21146011 C81.81861675 -0.22607713 84.84350469 -0.22797368 87.86865234 -0.22705078 C88.74907196 -0.23424133 89.62949158 -0.24143188 90.53659058 -0.24884033 C96.56025764 -0.22908562 102.13891722 0.62534165 108 2 C108 2.66 108 3.32 108 4 C108.86625 4.0825 109.7325 4.165 110.625 4.25 C117.8328426 5.8517428 123.47229044 11.35003765 128 17 C129.69943338 20.23892009 130.89777317 23.51870932 132 27 C132.35707031 27.95003906 132.71414063 28.90007812 133.08203125 29.87890625 C135.51955561 38.16648906 135.09288687 48.29732111 131 56 C128.54691963 59.84265759 126.01542292 63.57483808 123 67 C122.34 67 121.68 67 121 67 C121 67.66 121 68.32 121 69 C119.56705502 69.84114171 118.12845595 70.67265687 116.6875 71.5 C115.48673828 72.19609375 115.48673828 72.19609375 114.26171875 72.90625 C112 74 112 74 109 74 C109 74.66 109 75.32 109 76 C103.16918442 78.00621866 97.97979384 78.27457763 91.84204102 78.22705078 C90.34821144 78.22748886 90.34821144 78.22748886 88.82420349 78.22793579 C85.55068073 78.22654864 82.27738898 78.21101629 79.00390625 78.1953125 C76.72704696 78.19158019 74.45018606 78.18873425 72.17332458 78.18673706 C66.19417857 78.1791178 60.21513042 78.15948392 54.23602295 78.1373291 C47.05482251 78.11322751 39.87358927 78.10408157 32.69235992 78.09242249 C21.79483864 78.07305861 10.89753192 78.03472395 0 78 C0 52.26 0 26.52 0 0 Z " fill="#FEFEFE" transform="translate(331,389)"/>
<path d="M0 0 C25.05463623 -0.12032643 25.05463623 -0.12032643 35.76953125 -0.14648438 C43.06858905 -0.16438805 50.36753347 -0.18552351 57.66650391 -0.22631836 C63.55390284 -0.25901624 69.44118011 -0.27687507 75.32866287 -0.28463173 C77.57003315 -0.29015652 79.81139709 -0.30094495 82.0527153 -0.31719017 C85.20244261 -0.33910284 88.35167306 -0.34196112 91.50146484 -0.34057617 C92.8781987 -0.35675491 92.8781987 -0.35675491 94.28274536 -0.3732605 C102.40863802 -0.33482989 109.56783586 1.77939554 117 5 C117 5.66 117 6.32 117 7 C117.58265625 7.26039063 118.1653125 7.52078125 118.765625 7.7890625 C121.14656439 9.07943175 122.8178497 10.48413496 124.75 12.375 C125.36359375 12.96023438 125.9771875 13.54546875 126.609375 14.1484375 C128 16 128 16 128 20 C128.66 20 129.32 20 130 20 C132.65999925 24.63696312 132.33074692 28.89908295 132.3125 34.125 C132.32861328 35.02476562 132.34472656 35.92453125 132.36132812 36.8515625 C132.36884926 47.32097775 129.60390246 55.83730839 123 64 C120.5 66.3125 120.5 66.3125 118 68 C116.63875 69.0828125 116.63875 69.0828125 115.25 70.1875 C111.15750408 72.46985349 107.61895596 72.79471307 103 73 C103 73.66 103 74.32 103 75 C69.01 75 35.02 75 0 75 C0 50.25 0 25.5 0 0 Z " fill="#FEFDFD" transform="translate(332,561)"/>
<path d="M0 0 C7.69835335 13.30129691 13.11298262 26.85749826 16 42 C16.20496094 42.9178125 16.40992188 43.835625 16.62109375 44.78125 C18.93817868 56.67029267 18.25838046 68.94970513 18 81 C17.98598145 81.72880371 17.97196289 82.45760742 17.95751953 83.20849609 C17.72602607 92.17469141 15.59994193 100.45393464 13 109 C12.71334473 109.97235596 12.71334473 109.97235596 12.42089844 110.96435547 C9.92763266 119.35779527 6.81929414 126.67093495 2 134 C1.28164679 135.26519648 0.57225983 136.53555748 -0.125 137.8125 C-1.87644948 140.78996412 -3.8388226 143.31715909 -6 146 C-6.33 146.99 -6.66 147.98 -7 149 C-7.66 149 -8.32 149 -9 149 C-9.21527344 149.69480469 -9.43054688 150.38960937 -9.65234375 151.10546875 C-11.38162603 154.81966634 -13.76308137 157.36253645 -16.5625 160.3125 C-17.06974609 160.86228516 -17.57699219 161.41207031 -18.09960938 161.97851562 C-19.37348326 163.3439863 -20.68376549 164.67531454 -22 166 C-22.33 166 -22.66 166 -23 166 C-23.3506909 160.62273954 -22.36074287 156.5114528 -20.734375 151.39453125 C-15.19124835 133.32040022 -20.51196435 111.38755255 -29.05615234 94.97070312 C-30.78544063 91.83261828 -32.59749733 88.75515305 -34.4609375 85.6953125 C-36 83 -36 83 -36 81 C-36.66 81 -37.32 81 -38 81 C-40.24649224 79.04337772 -41.87201346 77.21801097 -43.3828125 74.64453125 C-45.03081654 71.94960677 -46.83273416 69.72619716 -48.9375 67.375 C-49.60652344 66.61960937 -50.27554687 65.86421875 -50.96484375 65.0859375 C-53.93176037 62.04499033 -56.81091289 59.90328518 -60.75 58.3125 C-61.8225 57.879375 -62.895 57.44625 -64 57 C-64 56.34 -64 55.68 -64 55 C-64.7425 54.7525 -65.485 54.505 -66.25 54.25 C-69.24537757 52.88846474 -70.76455189 51.37967057 -73 49 C-73.7425 48.46375 -74.485 47.9275 -75.25 47.375 C-75.8275 46.92125 -76.405 46.4675 -77 46 C-77 45.34 -77 44.68 -77 44 C-76.01902344 43.78085937 -75.03804688 43.56171875 -74.02734375 43.3359375 C-46.26845093 36.91135996 -24.80468277 22.8275765 -5.3046875 2.140625 C-3 0 -3 0 0 0 Z " fill="#F16554" transform="translate(542,528)"/>
<path d="M0 0 C0.33 0 0.66 0 1 0 C2.79077 21.80759915 -6.62014469 41.06810678 -18 59 C-17.49210938 59.79921875 -16.98421875 60.5984375 -16.4609375 61.421875 C-3.68528535 81.80549977 6.94780828 105.21014423 7.7265625 129.62109375 C7.81679688 130.40613281 7.90703125 131.19117188 8 132 C8.66 132.33 9.32 132.66 10 133 C7.79225409 136.00043269 5.58369377 139.000265 3.375 142 C2.75753906 142.83917969 2.14007812 143.67835938 1.50390625 144.54296875 C-2.3049107 149.71494125 -6.13581647 154.86925283 -10 160 C-11.04653873 156.86038382 -11.08697635 154.7651798 -11.02734375 151.4765625 C-11.01356689 150.37916748 -10.99979004 149.28177246 -10.9855957 148.15112305 C-10.96972412 146.98750244 -10.95385254 145.82388184 -10.9375 144.625 C-10.879738 135.5004677 -10.99771813 126.92943094 -13 118 C-13.21785156 116.90945313 -13.43570313 115.81890625 -13.66015625 114.6953125 C-15.12300758 107.77274831 -17.20210792 101.48144785 -20 95 C-20.35835937 94.06671875 -20.71671875 93.1334375 -21.0859375 92.171875 C-25.45242352 80.97725983 -31.59786218 71.21422256 -39.43359375 62.12109375 C-41.04353463 59.94104911 -41.87643913 58.7075947 -42 56 C-40.8125 54.09765625 -40.8125 54.09765625 -39 52.0625 C-33.58241931 45.50722736 -29.4960507 37.97033069 -26.375 30.0625 C-24.67447732 26.27497221 -22.90741659 23.97664079 -20 21 C-19.21238281 20.731875 -18.42476562 20.46375 -17.61328125 20.1875 C-14.09870938 18.59044492 -12.77204137 16.45154541 -10.5625 13.3125 C-7.23188966 8.67582256 -3.84315146 4.2274666 0 0 Z " fill="#2C539B" transform="translate(570,452)"/>
<path d="M0 0 C9.24 0 18.48 0 28 0 C28.15299011 11.97798093 28.30175019 23.95599355 28.4429636 35.93411922 C28.50869859 41.49542336 28.57632261 47.05669142 28.64819336 52.61791992 C28.71742242 57.98002645 28.78178143 63.34217091 28.84269524 68.70437813 C28.86685948 70.75502221 28.89280928 72.80564601 28.92053413 74.85624504 C28.95892566 77.71785177 28.99109378 80.57946336 29.02172852 83.44116211 C29.03467453 84.29783478 29.04762054 85.15450745 29.06095886 86.03713989 C29.07900194 88.0247819 29.04526206 90.0127915 29 92 C28.67 92.33 28.34 92.66 28 93 C18.76 93 9.52 93 0 93 C0 62.31 0 31.62 0 0 Z " fill="#B8215E" transform="translate(332,467)"/>
<path d="M0 0 C3.9184231 2.90407953 6.80579283 5.9922033 9.75 9.875 C10.91789063 11.38707031 10.91789063 11.38707031 12.109375 12.9296875 C14.05748688 16.09335679 14.6715573 18.33238981 15 22 C14.1013623 22.39155273 14.1013623 22.39155273 13.18457031 22.79101562 C10.85125599 24.08231788 9.6935119 25.26721404 8.046875 27.34375 C7.51457275 28.00737549 6.98227051 28.67100098 6.43383789 29.35473633 C5.60033813 30.41664185 5.60033813 30.41664185 4.75 31.5 C4.16790771 32.23049561 3.58581543 32.96099121 2.98608398 33.71362305 C1.83086131 35.16411749 0.6783572 36.61678196 -0.47119141 38.07177734 C-2.2687843 40.33900646 -4.10446253 42.57388808 -5.9375 44.8125 C-9.66838653 49.47610816 -13.16622201 54.30289807 -16.6875 59.125 C-22.2940594 66.79824954 -28.11687601 74.24885391 -34.16015625 81.58203125 C-34.63316162 82.15824219 -35.10616699 82.73445312 -35.59350586 83.328125 C-36.5347382 84.44695143 -37.49969252 85.54622326 -38.48657227 86.625 C-41.19879311 89.57719426 -41.19879311 89.57719426 -42.26953125 93.3359375 C-42.11871094 94.00882813 -41.96789062 94.68171875 -41.8125 95.375 C-41.544375 96.57125 -41.27625 97.7675 -41 99 C-44.74821073 95.39956819 -47.98597253 91.6373726 -51.125 87.5 C-51.55425781 86.94441406 -51.98351562 86.38882813 -52.42578125 85.81640625 C-54.84255272 82.65601278 -57.02754776 79.45501437 -59 76 C-57.948125 74.78376953 -57.948125 74.78376953 -56.875 73.54296875 C-51.43321862 67.20464499 -46.28936103 60.84374653 -41.55859375 53.94921875 C-41.04425781 53.30597656 -40.52992188 52.66273438 -40 52 C-39.34 52 -38.68 52 -38 52 C-37.773125 51.29875 -37.54625 50.5975 -37.3125 49.875 C-35.72758781 46.40328759 -33.50855992 43.82250725 -31 41 C-27.05367045 36.45027621 -23.22877658 31.84145536 -19.5625 27.0625 C-18.78003906 26.04285156 -17.99757813 25.02320313 -17.19140625 23.97265625 C-15.70945038 21.96237387 -14.27905141 19.9132169 -12.8984375 17.83203125 C-11.38394395 15.5727559 -9.89073277 13.62035654 -8.0625 11.625 C-4.89644086 8.02390983 -2.42269425 4.12715614 0 0 Z " fill="#2B4D99" transform="translate(641,505)"/>
<path d="M0 0 C5.93756614 4.30473545 10.08289043 9.82607857 14 16 C14 16.66 14 17.32 14 18 C12.49609375 19.48046875 12.49609375 19.48046875 10.4375 21.1875 C7.72517387 23.48728702 5.15033357 25.81054465 2.6875 28.375 C-1.86128648 32.99648398 -6.92406341 36.97755968 -12 41 C-13.03833984 41.83917969 -13.03833984 41.83917969 -14.09765625 42.6953125 C-26.71058608 52.58882214 -45.68401344 62 -62 62 C-61.401875 62.598125 -60.80375 63.19625 -60.1875 63.8125 C-58.45833333 65.54166667 -56.72916667 67.27083333 -55 69 C-58.40312738 67.94124926 -61.01353231 66.99097846 -64 65 C-64.33 66.65 -64.66 68.3 -65 70 C-65.66 69.319375 -66.32 68.63875 -67 67.9375 C-69.97190839 64.93989787 -73.18536092 62.25212981 -76.42578125 59.55078125 C-77.20501953 58.78314453 -77.20501953 58.78314453 -78 58 C-78 57.34 -78 56.68 -78 56 C-78.65355469 55.88785156 -79.30710937 55.77570312 -79.98046875 55.66015625 C-83.83879292 54.81661578 -87.55223499 53.63715559 -91.3125 52.4375 C-92.42334961 52.08655273 -92.42334961 52.08655273 -93.55664062 51.72851562 C-95.37183405 51.15468028 -97.18602006 50.57765989 -99 50 C-99 49.67 -99 49.34 -99 49 C-98.195625 48.98582031 -97.39125 48.97164062 -96.5625 48.95703125 C-80.20607717 48.29344831 -62.6522802 45.52414389 -48 38 C-46.51963381 37.28234048 -45.03915465 36.56491399 -43.55859375 35.84765625 C-26.22780307 27.26647525 -11.1448727 16.03987561 0 0 Z " fill="#D8343D" transform="translate(527,510)"/>
<path d="M0 0 C9.24 0 18.48 0 28 0 C28.103125 3.96 28.20625 7.92 28.3125 12 C29.19073722 37.16517536 35.36951882 61.1614465 54.296875 79.1875 C55.81176085 80.5340652 57.34028381 81.86556906 58.88671875 83.17578125 C61.03029505 85.02615118 63.02077141 86.97609356 65 89 C58.11984069 88.72313242 53.786678 87.71220853 48 84 C46.9275 83.5875 45.855 83.175 44.75 82.75 C39.25643772 80.48576149 34.6684753 76.60337131 30 73 C29.34644531 72.50371094 28.69289063 72.00742187 28.01953125 71.49609375 C18.46915678 63.82519801 6.33721559 49.23992404 4.9375 36.5625 C4.958125 35.386875 4.97875 34.21125 5 33 C4.34 33 3.68 33 3 33 C-0.82532301 22.00219634 -0.22205004 11.54660203 0 0 Z " fill="#D74C33" transform="translate(332,637)"/>
<path d="M0 0 C24.21680777 -0.04010881 24.21680777 -0.04010881 34.54296875 -0.04882812 C41.58773553 -0.05480485 48.63248931 -0.06187398 55.67724609 -0.07543945 C61.35713214 -0.08630821 67.03700423 -0.09228532 72.71689987 -0.09487724 C74.88340855 -0.09672429 77.04991648 -0.10033108 79.21641922 -0.10573006 C82.25188087 -0.11299336 85.28728496 -0.1139887 88.32275391 -0.11352539 C89.66495499 -0.1189183 89.66495499 -0.1189183 91.03427124 -0.12442017 C95.47274337 -0.11709409 99.63048003 0.10079249 104 1 C104 1.33 104 1.66 104 2 C70.34 2 36.68 2 2 2 C2 26.42 2 50.84 2 76 C37.31 75.67 72.62 75.34 109 75 C105.18630628 78.81369372 100.00615995 78.11631422 94.90484619 78.12442017 C93.96904724 78.12082489 93.03324829 78.11722961 92.0690918 78.11352539 C91.07349747 78.11367142 90.07790314 78.11381744 89.05213928 78.1139679 C85.76781012 78.11327232 82.48353798 78.10549652 79.19921875 78.09765625 C76.91950003 78.09579081 74.63978091 78.0943675 72.36006165 78.09336853 C66.36448049 78.08955329 60.36892362 78.07973146 54.37335205 78.06866455 C47.17716728 78.056629 39.98097437 78.05204346 32.78478241 78.04621124 C21.85650472 78.0365192 10.92828031 78.01735566 0 78 C0 52.26 0 26.52 0 0 Z " fill="#F9C4CF" transform="translate(331,389)"/>
<path d="M0 0 C23.53037659 -0.04668871 47.06074626 -0.08197349 70.59115982 -0.10362434 C81.51635536 -0.11394371 92.44152214 -0.12801667 103.36669922 -0.15087891 C112.88736005 -0.17079255 122.40800006 -0.18371163 131.92868114 -0.18817699 C136.97135288 -0.1907878 142.01396505 -0.19693807 147.05661774 -0.21146011 C151.80073674 -0.22501203 156.54477149 -0.22922749 161.288908 -0.22621536 C163.0320195 -0.2267666 164.77513375 -0.23075825 166.51822853 -0.23841095 C168.89476388 -0.24833482 171.2709795 -0.2459783 173.64752197 -0.24050903 C174.68643739 -0.24924756 174.68643739 -0.24924756 175.74634099 -0.25816262 C179.33706029 -0.23576714 181.94287759 0.04529263 185 2 C184.25970613 2.00423194 183.51941227 2.00846388 182.75668526 2.01282406 C164.76369312 2.11602057 146.77074128 2.22464167 128.77781868 2.33933926 C120.07666504 2.39467405 111.37550731 2.44815646 102.67431641 2.49731445 C95.09249282 2.54015316 87.51069945 2.58643035 79.92892253 2.63687855 C75.91251566 2.66348202 71.8961148 2.68833515 67.879673 2.70907402 C64.10242012 2.72863208 60.32522478 2.75277334 56.54802322 2.78049088 C55.15884952 2.78986572 53.76966317 2.79753944 52.38047028 2.80341911 C50.48939026 2.81167281 48.5983425 2.82653853 46.70730591 2.84178162 C45.64724398 2.84823417 44.58718204 2.85468672 43.49499702 2.8613348 C41.00040242 2.83442744 41.00040242 2.83442744 39 4 C39 3.34 39 2.68 39 2 C35.7 2.33 32.4 2.66 29 3 C28.67 3.99 28.34 4.98 28 6 C28.66 6 29.32 6 30 6 C29.67 6.66 29.34 7.32 29 8 C28.33097656 7.74605469 27.66195313 7.49210937 26.97265625 7.23046875 C18.11652222 4.05652541 9.25800932 2.44793511 0 1 C0 0.67 0 0.34 0 0 Z " fill="#DE397A" transform="translate(250,294)"/>
<path d="M0 0 C1.95123024 0.0001133 1.95123024 0.0001133 3.94187927 0.00022888 C5.34154296 0.00533398 6.74120625 0.01054995 8.14086914 0.01586914 C9.58818004 0.01773673 11.03549158 0.01915902 12.48280334 0.02015686 C16.27212299 0.02395522 20.06140365 0.03376229 23.85070801 0.04486084 C27.72541781 0.05513292 31.60013399 0.05966685 35.47485352 0.06469727 C43.06276182 0.07538723 50.65063812 0.09243105 58.23852539 0.11352539 C58.30995396 8.89923968 58.30995396 8.89923968 57.23852539 12.11352539 C56.57852539 12.11352539 55.91852539 12.11352539 55.23852539 12.11352539 C55.15602539 13.39227539 55.07352539 14.67102539 54.98852539 15.98852539 C54.39539274 21.32671924 52.92867222 26.43823572 50.23852539 31.11352539 C48.75352539 31.60852539 48.75352539 31.60852539 47.23852539 32.11352539 C48.21853811 25.94521006 49.41830549 20.07747734 51.51196289 14.18774414 C52.20871096 12.19864079 52.80238783 10.20700836 53.36352539 8.17602539 C54.23852539 5.11352539 54.23852539 5.11352539 55.23852539 3.11352539 C47.45014608 3.1812995 39.66223869 3.27139196 31.87426758 3.37597656 C29.23263157 3.41047629 26.59126391 3.4370561 23.94946289 3.45996094 C-1.90145369 3.48754849 -1.90145369 3.48754849 -26.85913086 9.55102539 C-30.17992576 10.53294421 -33.32636706 10.30089489 -36.76147461 10.11352539 C-28.52588574 1.87793652 -11.00974733 -0.0214615 0 0 Z " fill="#2FC1E4" transform="translate(732.761474609375,292.886474609375)"/>
<path d="M0 0 C33 0 66 0 100 0 C100 0.33 100 0.66 100 1 C67.33 1 34.66 1 1 1 C1 25.75 1 50.5 1 76 C34.99 76 68.98 76 104 76 C104 75.34 104 74.68 104 74 C107.465 73.505 107.465 73.505 111 73 C108.35569307 75.90873762 105.87542178 77.7957643 101.88360214 78.23047829 C101.12035755 78.22126036 100.35711296 78.21204243 99.57073975 78.20254517 C98.24988373 78.19404793 98.24988373 78.19404793 96.90234375 78.18537903 C95.94424805 78.16883774 94.98615234 78.15229645 93.99902344 78.13525391 C92.98406799 78.12579239 91.96911255 78.11633087 90.92340088 78.10658264 C87.56854236 78.07290422 84.21405334 78.02478851 80.859375 77.9765625 C78.53339605 77.95039549 76.20740682 77.92512847 73.88140869 77.90072632 C67.75910427 77.83407447 61.63701611 77.75518149 55.51489258 77.67376709 C48.16949248 77.57862127 40.82391372 77.49862922 33.47836304 77.41610718 C22.31872832 77.28903475 11.1594953 77.14267496 0 77 C0 51.59 0 26.18 0 0 Z " fill="#F1ACA0" transform="translate(331,560)"/>
<path d="M0 0 C-5.03409445 2.51704722 -9.24810406 3.42790256 -14.86328125 3.7890625 C-17.05080358 3.87657712 -17.05080358 3.87657712 -19 5 C-24.92358663 5.99827805 -30.87266003 6.14288058 -36.86488342 6.12025452 C-38.13211051 6.12153615 -38.13211051 6.12153615 -39.42493814 6.12284368 C-42.23001026 6.12447884 -45.03502136 6.11900955 -47.84008789 6.11352539 C-49.86109414 6.11324307 -51.8821005 6.11340213 -53.90310669 6.1139679 C-59.37141665 6.11425411 -64.83970454 6.10838577 -70.30800939 6.10139394 C-76.02951142 6.09513116 -81.75101399 6.09455429 -87.47251892 6.09336853 C-98.29888526 6.09026383 -109.12524147 6.08206206 -119.95160335 6.07201904 C-132.28047577 6.06083114 -144.60934868 6.05534071 -156.93822491 6.05032361 C-182.29215555 6.03987873 -207.64607721 6.02229598 -233 6 C-233 5.67 -233 5.34 -233 5 C-231.97168344 4.99945523 -230.94336687 4.99891047 -229.8838892 4.99834919 C-204.75597331 4.98389471 -179.62822946 4.94063519 -154.50041294 4.86790943 C-142.34831842 4.83339172 -130.19633578 4.80792136 -118.04418945 4.80444336 C-107.44101237 4.80138497 -96.83803522 4.78064482 -86.23493522 4.73947543 C-80.63094908 4.71831263 -75.02724596 4.70545767 -69.42321968 4.71384621 C-37.38514377 5.04950454 -37.38514377 5.04950454 -6.00212002 -0.66576099 C-3.7119476 -1.0480882 -2.19182735 -0.70743617 0 0 Z " fill="#FBF0E7" transform="translate(466,726)"/>
<path d="M0 0 C2.51239382 3.76859072 3.12663199 6.26239249 3.0625 10.6875 C3.05347656 11.49574219 3.04445313 12.30398438 3.03515625 13.13671875 C3.02355469 13.75160156 3.01195312 14.36648438 3 15 C-5.28495522 15.04658237 -13.56985464 15.08199963 -21.85490894 15.10362434 C-25.70304339 15.11400927 -29.55108746 15.12807028 -33.39916992 15.15087891 C-37.12096213 15.17279796 -40.84266805 15.18460828 -44.56451988 15.18975449 C-45.97610518 15.19341636 -47.38768639 15.20056579 -48.79923439 15.21146011 C-65.30530201 15.3336505 -65.30530201 15.3336505 -73 13 C-73.66 12.34 -74.32 11.68 -75 11 C-73.18759041 10.97239985 -71.37505052 10.95334002 -69.5625 10.9375 C-68.55316406 10.92589844 -67.54382813 10.91429687 -66.50390625 10.90234375 C-63 11 -63 11 -59.08789062 11.5 C-53.09105436 12.18245401 -47.11849543 12.12455874 -41.08984375 12.09765625 C-39.27777184 12.09553383 -39.27777184 12.09553383 -37.42909241 12.09336853 C-33.59853563 12.08780395 -29.76803889 12.07525803 -25.9375 12.0625 C-23.32877689 12.05748042 -20.72005286 12.05291832 -18.11132812 12.04882812 C-11.74086519 12.03784613 -5.37043689 12.02114354 1 12 C1.33 11.01 1.66 10.02 2 9 C1.34 9 0.68 9 0 9 C-1.125 2.25 -1.125 2.25 0 0 Z " fill="#2BBDE5" transform="translate(788,715)"/>
<path d="M0 0 C0.66 0.33 1.32 0.66 2 1 C0.66521063 5.0043681 -1.85035908 5.91655044 -5.3125 7.9375 C-13.7533523 13.08707423 -21.48012568 19.72018852 -27 28 C-27.66 28 -28.32 28 -29 28 C-29.20625 28.845625 -29.4125 29.69125 -29.625 30.5625 C-31.728851 35.82212751 -34.75527449 39.87763725 -39.875 42.4375 C-40.57625 42.623125 -41.2775 42.80875 -42 43 C-40.32183213 39.15886021 -37.82331994 36.02004323 -35.25 32.75 C-34.34052093 31.58642567 -33.43166422 30.42236461 -32.5234375 29.2578125 C-32.08612305 28.69739258 -31.64880859 28.13697266 -31.19824219 27.55957031 C-29.70584069 25.61713739 -28.29272126 23.62234211 -26.875 21.625 C-20.46227978 13.05068869 -9.70520454 4.57921623 0 0 Z " fill="#42B9E2" transform="translate(694,303)"/>
<path d="M0 0 C3.36578227 3.24871158 6.29564325 6.54339071 9.0625 10.3125 C9.8359375 11.35921875 10.609375 12.4059375 11.40625 13.484375 C11.82132813 14.04833984 12.23640625 14.61230469 12.6640625 15.19335938 C14.59696177 17.80729479 16.55419313 20.40270275 18.51000977 22.99951172 C20.5448054 25.70339961 22.5717087 28.41313749 24.59716797 31.12402344 C25.49043661 32.31857204 26.38513869 33.51205106 27.28173828 34.70410156 C28.4015996 36.1944951 29.51357348 37.69080585 30.625 39.1875 C31.23601563 40.00605469 31.84703125 40.82460938 32.4765625 41.66796875 C34.02683238 44.04107419 35.04481121 46.33776591 36 49 C35.01 48.67 34.02 48.34 33 48 C33 47.34 33 46.68 33 46 C32.38125 45.731875 31.7625 45.46375 31.125 45.1875 C29 44 29 44 27 41 C27 39.68 27 38.36 27 37 C26.44699219 36.81179688 25.89398437 36.62359375 25.32421875 36.4296875 C21.95093863 34.35469502 20.04394022 31.31570303 17.8125 28.125 C16.84196614 26.76503922 15.87059962 25.40567231 14.8984375 24.046875 C14.4147168 23.36689453 13.93099609 22.68691406 13.43261719 21.98632812 C10.64105097 18.115813 7.69926027 14.35853858 4.77734375 10.5859375 C2.45843353 7.21205054 1.28618606 3.85855817 0 0 Z " fill="#33BCE4" transform="translate(746,647)"/>
<path d="M0 0 C1.44159243 0.00373972 2.88318743 0.00658215 4.32478333 0.00857544 C8.08122023 0.01613654 11.83749739 0.03571835 15.59387207 0.0579834 C19.4421167 0.07860592 23.29038767 0.08761189 27.13867188 0.09765625 C34.66153041 0.11897302 42.18425827 0.15301551 49.70703125 0.1953125 C49.84988839 8.98102679 49.84988839 8.98102679 47.70703125 12.1953125 C47.68002695 10.73708038 47.66063338 9.27870575 47.64453125 7.8203125 C47.63292969 7.00820313 47.62132812 6.19609375 47.609375 5.359375 C47.70703125 3.1953125 47.70703125 3.1953125 48.70703125 1.1953125 C40.61358093 1.27990403 32.52034528 1.37485928 24.42717648 1.48283958 C20.66869189 1.5326646 16.91023355 1.57899511 13.15161133 1.6171875 C9.52047941 1.65421554 5.88957466 1.70062146 2.25863838 1.75337601 C0.87729462 1.77182734 -0.50409767 1.78696904 -1.88551521 1.79865646 C-11.77267617 1.8720339 -11.77267617 1.8720339 -21.29296875 4.1953125 C-24.00859631 4.41326014 -26.5605712 4.2911861 -29.29296875 4.1953125 C-21.03603999 -1.30930667 -9.5292751 -0.0735469 0 0 Z " fill="#90DFF2" transform="translate(741.29296875,292.8046875)"/>
<path d="M0 0 C0.66 0 1.32 0 2 0 C1.67 1.32 1.34 2.64 1 4 C0.34 4 -0.32 4 -1 4 C-1.309375 4.61875 -1.61875 5.2375 -1.9375 5.875 C-2.625 7.25 -3.3125 8.625 -4 10 C-4.66 10 -5.32 10 -6 10 C-6.2784375 10.57234375 -6.556875 11.1446875 -6.84375 11.734375 C-7.98273792 13.96617566 -9.19936383 16.10870874 -10.5 18.25 C-10.9228125 18.95640625 -11.345625 19.6628125 -11.78125 20.390625 C-12.38453125 21.18726563 -12.38453125 21.18726563 -13 22 C-13.66 22 -14.32 22 -15 22 C-15.23460937 22.53109375 -15.46921875 23.0621875 -15.7109375 23.609375 C-17.38702912 26.7177631 -19.48451926 29.45399703 -21.625 32.25 C-22.25535156 33.08144531 -22.25535156 33.08144531 -22.8984375 33.9296875 C-23.92938719 35.28866663 -24.96429911 36.64463835 -26 38 C-26.495 36.515 -26.495 36.515 -27 35 C-25.375 32.3984375 -25.375 32.3984375 -23 29.375 C-22.58355225 28.83866943 -22.16710449 28.30233887 -21.73803711 27.74975586 C-20.5008679 26.1595842 -19.25061449 24.57961925 -18 23 C-16.85333845 21.52147528 -15.70741474 20.0423778 -14.5625 18.5625 C-14.01464844 17.86253906 -13.46679688 17.16257812 -12.90234375 16.44140625 C-10.00908823 12.72829598 -7.14823116 8.99029237 -4.28735352 5.25219727 C-1.10871557 1.10871557 -1.10871557 1.10871557 0 0 Z " fill="#3E8EC6" transform="translate(669,468)"/>
<path d="M0 0 C0.33 0 0.66 0 1 0 C1.33 5.94 1.66 11.88 2 18 C2.66 18 3.32 18 4 18 C4.2475 17.45859375 4.495 16.9171875 4.75 16.359375 C6.27988604 13.4717151 8.09150997 10.90223982 10 8.25 C10.70125 7.26515625 11.4025 6.2803125 12.125 5.265625 C12.74375 4.51796875 13.3625 3.7703125 14 3 C14.66 3 15.32 3 16 3 C15.46184547 7.25349058 12.84353152 10.08293353 10.25 13.3125 C9.34026697 14.46805864 8.4314045 15.62430321 7.5234375 16.78125 C7.08741211 17.33425781 6.65138672 17.88726563 6.20214844 18.45703125 C4.03624836 21.23698424 2.01593442 24.11049399 0 27 C-1.06432275 23.80703175 -1.03788336 21.79555059 -0.87890625 18.45703125 C-0.83056641 17.38388672 -0.78222656 16.31074219 -0.73242188 15.20507812 C-0.67634766 14.08552734 -0.62027344 12.96597656 -0.5625 11.8125 C-0.51029297 10.68134766 -0.45808594 9.55019531 -0.40429688 8.38476562 C-0.27456193 5.5895672 -0.13959359 2.7947206 0 0 Z " fill="#32488F" transform="translate(560,585)"/>
<path d="M0 0 C0.75 1.625 0.75 1.625 1 4 C-2.136 9.712 -2.136 9.712 -6 11 C-6.69942519 12.65318681 -7.3603778 14.32276845 -8 16 C-9.2272711 17.79574732 -10.52310288 19.54609948 -11.875 21.25 C-12.55304687 22.12140625 -13.23109375 22.9928125 -13.9296875 23.890625 C-16.0417042 26.04249107 -17.05870927 26.65706924 -20 27 C-15.25264206 19.10808986 -9.92868452 12.03551842 -4 5 C-2.66189741 3.33715995 -1.32711339 1.67162364 0 0 Z " fill="#497FB7" transform="translate(571,446)"/>
<path d="M0 0 C0.33 0 0.66 0 1 0 C1.31056079 9.78266497 -0.15694805 19.3135296 -5 28 C-5.99 28.33 -6.98 28.66 -8 29 C-7.01998728 22.83168467 -5.8202199 16.96395195 -3.7265625 11.07421875 C-3.02981443 9.0851154 -2.43613756 7.09348297 -1.875 5.0625 C-1 2 -1 2 0 0 Z " fill="#43C5E6" transform="translate(788,296)"/>
<path d="M0 0 C-0.33 0.66 -0.66 1.32 -1 2 C-3.20838323 2.58500218 -5.44403716 3.068655 -7.6875 3.5 C-11.28755443 4.19948259 -14.71089984 4.90138669 -18.18359375 6.0859375 C-21.98484266 7.31962994 -25.02838492 7.13695224 -29 7 C-21.63985495 -0.36014505 -9.70791658 -0.07073163 0 0 Z " fill="#3EBFE5" transform="translate(725,296)"/>
<path d="M0 0 C1.48993176 2.97986351 0.23186703 5.04958825 -0.74169922 8.07080078 C-1.01256348 8.87243652 -1.28342773 9.67407227 -1.5625 10.5 C-1.83336426 11.31065918 -2.10422852 12.12131836 -2.38330078 12.95654297 C-4.52704937 19.13572838 -7.20595425 24.64528295 -11 30 C-11.33 28.68 -11.66 27.36 -12 26 C-11.34 26 -10.68 26 -10 26 C-9.896875 25.21625 -9.79375 24.4325 -9.6875 23.625 C-9.11159928 20.58843256 -8.44103634 17.66539178 -7.625 14.6875 C-7.39039063 13.82511719 -7.15578125 12.96273437 -6.9140625 12.07421875 C-6.61242187 11.38972656 -6.31078125 10.70523438 -6 10 C-5.01 9.67 -4.02 9.34 -3 9 C-3 7.35 -3 5.7 -3 4 C-2.34 4 -1.68 4 -1 4 C-0.67 2.68 -0.34 1.36 0 0 Z " fill="#FA9470" transform="translate(555,632)"/>
<path d="M0 0 C12.73163508 -0.36211623 24.58366358 0.04958343 37 3 C37 3.99 37 4.98 37 6 C35.39583333 5.70833333 33.79166667 5.41666667 32.1875 5.125 C31.17558594 4.94453125 30.16367187 4.7640625 29.12109375 4.578125 C27.1912285 4.22065309 25.26532432 3.83986451 23.34765625 3.421875 C15.50446316 1.77067645 7.98360398 1.8060663 0 2 C0 1.34 0 0.68 0 0 Z " fill="#F7AB48" transform="translate(234,295)"/>
<path d="M0 0 C3.56894362 3.43652698 6.64526575 6.95940118 9.625 10.9375 C10.38039063 11.93652344 11.13578125 12.93554688 11.9140625 13.96484375 C13.93357252 16.90334429 15.60842741 19.71719621 17 23 C16.67 23.66 16.34 24.32 16 25 C14.39553069 22.91689914 12.79141482 20.83352773 11.1875 18.75 C10.73568359 18.16347656 10.28386719 17.57695313 9.81835938 16.97265625 C8.93803819 15.82888128 8.05877648 14.68428995 7.18066406 13.53881836 C6.20637076 12.2689733 5.22691937 11.00308756 4.24609375 9.73828125 C2.12121178 6.77410421 1.14482402 3.43447205 0 0 Z " fill="#4ABBE1" transform="translate(746,647)"/>
<path d="M0 0 C0.66 0 1.32 0 2 0 C1.48034256 4.09319216 0.39893194 6.0963352 -2.4375 9.0625 C-4.35087938 11.07973714 -5.8498019 12.68796483 -7.05859375 15.19921875 C-7.36925781 15.79347656 -7.67992187 16.38773437 -8 17 C-10.625 17.75 -10.625 17.75 -13 18 C-10.60863127 13.8091855 -7.86485019 10.00967339 -4.9375 6.1875 C-4.49083984 5.59001953 -4.04417969 4.99253906 -3.58398438 4.37695312 C-2.43864491 2.87893813 -1.22425256 1.43424443 0 0 Z " fill="#549CCD" transform="translate(585,428)"/>
<path d="M0 0 C7.92 0 15.84 0 24 0 C24 0.33 24 0.66 24 1 C21.36 1.33 18.72 1.66 16 2 C15.67 2.99 15.34 3.98 15 5 C15.66 5 16.32 5 17 5 C16.67 5.66 16.34 6.32 16 7 C14.08034691 6.40539047 12.16436921 5.79890739 10.25 5.1875 C8.64898437 4.68283203 8.64898437 4.68283203 7.015625 4.16796875 C4 3 4 3 0 0 Z " fill="#C92662" transform="translate(263,295)"/>
<path d="M0 0 C0.33 0 0.66 0 1 0 C1.24621332 5.93573736 0.55184889 10.63024348 -1.3125 16.25 C-1.52583984 16.94351562 -1.73917969 17.63703125 -1.95898438 18.3515625 C-3.149683 22.06227702 -4.41643303 25.06034022 -7 28 C-7.33 27.34 -7.66 26.68 -8 26 C-5.48571429 19.48571429 -5.48571429 19.48571429 -4 18 C-3.45820648 14.48061858 -3.03345067 10.95193194 -2.59765625 7.41796875 C-2.08366988 4.47850424 -1.51958555 2.52416512 0 0 Z " fill="#F0669D" transform="translate(554,446)"/>
<path d="M0 0 C6.49874677 -0.18928389 11.83464488 -0.18356327 18 2 C21.99170883 2.46930944 25.98892113 2.75336408 30 3 C30 3.33 30 3.66 30 4 C9.69047619 4.42857143 9.69047619 4.42857143 2 2 C1.34 1.34 0.68 0.68 0 0 Z " fill="#5ACBEC" transform="translate(713,726)"/>
<path d="M0 0 C0.33 0 0.66 0 1 0 C2.05619003 4.28297531 2.11702092 8.42985646 2.0625 12.8125 C2.05798828 13.50537109 2.05347656 14.19824219 2.04882812 14.91210938 C2.03713156 16.60811068 2.01919924 18.30406703 2 20 C1.01 20 0.02 20 -1 20 C-2.51708428 6.3667426 -2.51708428 6.3667426 0 0 Z " fill="#B62156" transform="translate(532,476)"/>
<path d="M0 0 C2 1 2 1 2.66796875 2.99609375 C2.83941406 3.80175781 3.01085937 4.60742188 3.1875 5.4375 C3.36667969 6.24058594 3.54585938 7.04367187 3.73046875 7.87109375 C4 10 4 10 3 12 C3.66 12.33 4.32 12.66 5 13 C4.34 13 3.68 13 3 13 C3.02320313 13.61488281 3.04640625 14.22976563 3.0703125 14.86328125 C3.08835937 15.67152344 3.10640625 16.47976563 3.125 17.3125 C3.14820313 18.11300781 3.17140625 18.91351563 3.1953125 19.73828125 C3 22 3 22 1 25 C0.67 16.75 0.34 8.5 0 0 Z " fill="#B71B59" transform="translate(464,415)"/>
<path d="M0 0 C-5.4701522 3.66988885 -9.04621911 4.54042175 -15.55859375 4.171875 C-16.34774673 4.14401917 -17.13689972 4.11616333 -17.94996643 4.08746338 C-20.44706679 3.99479649 -22.94172351 3.87289717 -25.4375 3.75 C-27.13989709 3.68165145 -28.84237254 3.61522591 -30.54492188 3.55078125 C-34.6978515 3.38941021 -38.84884795 3.20182958 -43 3 C-43 2.67 -43 2.34 -43 2 C-31.12 2 -19.24 2 -7 2 C-7 1.34 -7 0.68 -7 0 C-2.25 -1.125 -2.25 -1.125 0 0 Z " fill="#F5A47C" transform="translate(442,634)"/>
<path d="M0 0 C0.66 0.99 1.32 1.98 2 3 C-1.6435757 8.85574666 -5.13079791 11.57629878 -11 15 C-9.3718356 11.24269753 -6.98598083 8.383177 -4.375 5.25 C-3.55773437 4.26515625 -2.74046875 3.2803125 -1.8984375 2.265625 C-1.27195312 1.51796875 -0.64546875 0.7703125 0 0 Z " fill="#46B4DD" transform="translate(651,346)"/>
<path d="M0 0 C4.11473644 6.17210466 3.4669451 12.80904553 3 20 C2.26085909 23.2144035 1.2661881 25.94004543 0 29 C-1.09083122 25.72750633 -0.74078594 23.62886713 -0.26220703 20.2734375 C0.18983659 16.35404255 0.1042104 12.4400283 0.0625 8.5 C0.05798828 7.67757813 0.05347656 6.85515625 0.04882812 6.0078125 C0.03718489 4.00517604 0.01925556 2.00257773 0 0 Z " fill="#EFA8C9" transform="translate(462,416)"/>
<path d="M0 0 C0.73046875 1.71875 0.73046875 1.71875 1 4 C-0.51171875 6.21875 -0.51171875 6.21875 -2.6875 8.5 C-3.39261719 9.2528125 -4.09773437 10.005625 -4.82421875 10.78125 C-6.869984 12.86741636 -8.92693326 14.94097209 -11 17 C-11.66 16.67 -12.32 16.34 -13 16 C-11.20994733 13.70705628 -9.41803862 11.41560683 -7.625 9.125 C-7.11710938 8.47402344 -6.60921875 7.82304687 -6.0859375 7.15234375 C-5.59609375 6.52714844 -5.10625 5.90195312 -4.6015625 5.2578125 C-4.15119629 4.6817627 -3.70083008 4.10571289 -3.23681641 3.51220703 C-2 2 -2 2 0 0 Z " fill="#50ABD6" transform="translate(617,389)"/>
<path d="M0 0 C0.99 0.66 1.98 1.32 3 2 C2.01 2.33 1.02 2.66 0 3 C-0.061875 3.721875 -0.12375 4.44375 -0.1875 5.1875 C-1.26192665 8.90666917 -3.05732994 10.54777495 -6 13 C-6.99 13 -7.98 13 -9 13 C-7.50923566 9.7173068 -5.61379679 7.06922559 -3.375 4.25 C-2.74335937 3.45078125 -2.11171875 2.6515625 -1.4609375 1.828125 C-0.97882812 1.22484375 -0.49671875 0.6215625 0 0 Z " fill="#47AFDA" transform="translate(639,361)"/>
<path d="M0 0 C0 3.96371154 -1.49924573 4.99909488 -4 8 C-4.53625 8.928125 -5.0725 9.85625 -5.625 10.8125 C-6.07875 11.534375 -6.5325 12.25625 -7 13 C-7.66 13 -8.32 13 -9 13 C-9 13.99 -9 14.98 -9 16 C-10.98 16.99 -10.98 16.99 -13 18 C-12.42676569 14.13066838 -10.61046448 11.84777943 -8 9 C-7.34 9 -6.68 9 -6 9 C-5.938125 8.443125 -5.87625 7.88625 -5.8125 7.3125 C-4.66626128 4.05012827 -2.50609803 2.31332126 0 0 Z " fill="#61C2E2" transform="translate(757,357)"/>
<path d="M0 0 C0.33 0.99 0.66 1.98 1 3 C-0.50822452 5.30390202 -2.02299174 7.37191058 -3.75 9.5 C-4.20632813 10.08136719 -4.66265625 10.66273438 -5.1328125 11.26171875 C-7.28930727 13.98538411 -9.45762102 16.62711295 -12 19 C-11.60588161 13.71477127 -8.67606288 10.61339832 -5.4375 6.6875 C-4.91736328 6.04232422 -4.39722656 5.39714844 -3.86132812 4.73242188 C-2.58234108 3.14835535 -1.29224956 1.57326594 0 0 Z " fill="#3D88C4" transform="translate(654,487)"/>
<path d="M0 0 C3.92965451 6.93927086 1.9457989 14.65113453 0 22 C-0.33 22 -0.66 22 -1 22 C-1.02895225 18.70835171 -1.0467823 15.41673601 -1.0625 12.125 C-1.07506836 10.71927734 -1.07506836 10.71927734 -1.08789062 9.28515625 C-1.09111328 8.38925781 -1.09433594 7.49335937 -1.09765625 6.5703125 C-1.10289307 5.74289551 -1.10812988 4.91547852 -1.11352539 4.06298828 C-1 2 -1 2 0 0 Z " fill="#FA9A76" transform="translate(557,609)"/>
<path d="M0 0 C0.59765625 1.80859375 0.59765625 1.80859375 1 4 C-1.48290956 8.86650274 -3.9764071 10.94489381 -9 13 C-7.47987323 7.59510481 -3.72614782 4.01507372 0 0 Z " fill="#5189BB" transform="translate(571,446)"/>
<path d="M0 0 C-5.44228289 2.69584531 -9.90046884 3.5064408 -15.9375 3.6875 C-16.71673828 3.72166016 -17.49597656 3.75582031 -18.29882812 3.79101562 C-20.19874393 3.8726071 -22.09934403 3.93799885 -24 4 C-24 3.67 -24 3.34 -24 3 C-20.75290806 2.29825244 -17.50199748 1.61611931 -14.25 0.9375 C-13.32960938 0.73833984 -12.40921875 0.53917969 -11.4609375 0.33398438 C-10.57148438 0.15029297 -9.68203125 -0.03339844 -8.765625 -0.22265625 C-7.94868164 -0.39547119 -7.13173828 -0.56828613 -6.29003906 -0.74633789 C-3.89799506 -1.01129884 -2.27474929 -0.73312703 0 0 Z " fill="#FACEB5" transform="translate(466,726)"/>
<path d="M0 0 C2.18648367 4.37296734 2.23362071 7.5208216 2.125 12.25 C2.11597656 12.99507812 2.10695313 13.74015625 2.09765625 14.5078125 C2.07418358 16.33868059 2.03831525 18.16938238 2 20 C2.66 20 3.32 20 4 20 C4 21.65 4 23.3 4 25 C3.01 25.33 2.02 25.66 1 26 C0.67 17.42 0.34 8.84 0 0 Z " fill="#E1603C" transform="translate(515,669)"/>
<path d="M0 0 C0.66 0.33 1.32 0.66 2 1 C1.67 1.99 1.34 2.98 1 4 C0.34 4 -0.32 4 -1 4 C-1.26554688 4.57234375 -1.53109375 5.1446875 -1.8046875 5.734375 C-3.05676891 8.1076012 -4.4936352 10.12213286 -6.125 12.25 C-6.66382813 12.95640625 -7.20265625 13.6628125 -7.7578125 14.390625 C-8.16773438 14.92171875 -8.57765625 15.4528125 -9 16 C-9.66 15.67 -10.32 15.34 -11 15 C-9.56438314 11.81293058 -7.79733671 9.37830895 -5.5 6.75 C-4.8915625 6.04359375 -4.283125 5.3371875 -3.65625 4.609375 C-2 3 -2 3 0 3 C0 2.01 0 1.02 0 0 Z " fill="#37B9E3" transform="translate(771,337)"/>
<path d="M0 0 C-1.32 0.33 -2.64 0.66 -4 1 C-3.1028125 1.8971875 -3.1028125 1.8971875 -2.1875 2.8125 C-0.45833333 4.54166667 1.27083333 6.27083333 3 8 C-0.40312738 6.94124926 -3.01353231 5.99097846 -6 4 C-6.33 5.65 -6.66 7.3 -7 9 C-7.99 8.01 -8.98 7.02 -10 6 C-9.1875 3.5625 -9.1875 3.5625 -8 1 C-5.07175348 0.02391783 -3.04386724 -0.08226668 0 0 Z " fill="#E14B45" transform="translate(469,571)"/>
<path d="M0 0 C1.63197842 0.73469139 3.25541307 1.48838122 4.875 2.25 C5.77992188 2.66765625 6.68484375 3.0853125 7.6171875 3.515625 C10.19972189 5.12441692 10.95607186 6.19219328 12 9 C7.1725201 7.58707905 3.2837641 5.57025846 -1 3 C-0.67 2.01 -0.34 1.02 0 0 Z " fill="#52BCE1" transform="translate(690,713)"/>
<path d="M0 0 C0 0.99 0 1.98 0 3 C-0.66 3.66 -1.32 4.32 -2 5 C-2.6496875 6.7015625 -2.6496875 6.7015625 -3.3125 8.4375 C-5.13881671 12.2930575 -6.21701074 13.25400496 -10 15 C-10.99 15.495 -10.99 15.495 -12 16 C-10.37921571 12.27131047 -8.02767716 9.42653322 -5.4375 6.3125 C-4.63183594 5.33925781 -3.82617188 4.36601562 -2.99609375 3.36328125 C-1 1 -1 1 0 0 Z " fill="#57A8D5" transform="translate(601,409)"/>
<path d="M0 0 C0.66 0 1.32 0 2 0 C0.42351454 3.68708075 -1.87442938 6.29873145 -4.5625 9.25 C-5.36816406 10.14203125 -6.17382812 11.0340625 -7.00390625 11.953125 C-7.66261719 12.62859375 -8.32132813 13.3040625 -9 14 C-9.33 14 -9.66 14 -10 14 C-10 12.35 -10 10.7 -10 9 C-8.68 9 -7.36 9 -6 9 C-6 8.34 -6 7.68 -6 7 C-5.34 7 -4.68 7 -4 7 C-3.71125 6.21625 -3.4225 5.4325 -3.125 4.625 C-2 2 -2 2 0 0 Z " fill="#F98F6E" transform="translate(529,680)"/>
<path d="M0 0 C3.9252025 3.70090521 6.94580156 7.54959656 10 12 C9.67 12.66 9.34 13.32 9 14 C5.43800721 11.74407124 4.48705016 9.8663304 3 6 C2.01 5.34 1.02 4.68 0 4 C0 2.68 0 1.36 0 0 Z " fill="#54B9E0" transform="translate(736,633)"/>
<path d="M0 0 C8.38356164 8.15068493 8.38356164 8.15068493 10 13 C6.63834194 11.58956521 4.90494768 9.98473966 2.75 7.0625 C2.22921875 6.37285156 1.7084375 5.68320312 1.171875 4.97265625 C0 3 0 3 0 0 Z " fill="#3177B7" transform="translate(609,615)"/>
<path d="M0 0 C1.9375 0.375 1.9375 0.375 4 1 C4.33 1.66 4.66 2.32 5 3 C5.99 3.33 6.98 3.66 8 4 C9.25 6.375 9.25 6.375 10 9 C9.67 9.99 9.34 10.98 9 12 C7.49707257 10.18992669 5.99772829 8.37687764 4.5 6.5625 C3.6646875 5.55316406 2.829375 4.54382813 1.96875 3.50390625 C0 1 0 1 0 0 Z " fill="#3460A7" transform="translate(590,592)"/>
<path d="M0 0 C1.90072266 0.14695312 1.90072266 0.14695312 3.83984375 0.296875 C5.10957031 0.38453125 6.37929688 0.4721875 7.6875 0.5625 C8.70714844 0.72234375 9.72679687 0.8821875 10.77734375 1.046875 C11.10734375 1.706875 11.43734375 2.366875 11.77734375 3.046875 C5.99974491 3.16724164 0.49774386 2.8789332 -5.22265625 2.046875 C-3.22265625 0.046875 -3.22265625 0.046875 0 0 Z " fill="#DF3577" transform="translate(438.22265625,294.953125)"/>
<path d="M0 0 C1.82421875 0.22265625 1.82421875 0.22265625 4 1 C5.51953125 2.99609375 5.51953125 2.99609375 6.8125 5.4375 C7.25207031 6.24058594 7.69164062 7.04367187 8.14453125 7.87109375 C8.42683594 8.57363281 8.70914063 9.27617188 9 10 C8.67 10.66 8.34 11.32 8 12 C6.66081194 10.37982158 5.3288031 8.75370657 4 7.125 C3.2575 6.22007812 2.515 5.31515625 1.75 4.3828125 C0 2 0 2 0 0 Z " fill="#35B7E1" transform="translate(754,660)"/>
<path d="M0 0 C2.72574271 0.37330824 3.80822085 0.79194601 5.703125 2.84765625 C6.21359375 3.57855469 6.7240625 4.30945313 7.25 5.0625 C8.03117188 6.16271484 8.03117188 6.16271484 8.828125 7.28515625 C9.21484375 7.85105469 9.6015625 8.41695312 10 9 C9.67 9.66 9.34 10.32 9 11 C1.33257403 5.03416856 1.33257403 5.03416856 0 0 Z " fill="#4AB0DB" transform="translate(726,622)"/>
<path d="M0 0 C0.33 0 0.66 0 1 0 C1.05437607 1.58294782 1.09296271 3.16644256 1.125 4.75 C1.14820313 5.63171875 1.17140625 6.5134375 1.1953125 7.421875 C0.99139502 10.1135858 0.36551721 11.69904974 -1 14 C-1.66 14 -2.32 14 -3 14 C-2.46247412 10.6212659 -1.88159493 7.30598099 -1 4 C-0.814375 3.2575 -0.62875 2.515 -0.4375 1.75 C-0.2209375 0.88375 -0.2209375 0.88375 0 0 Z M-4 14 C-3.67 14 -3.34 14 -3 14 C-3 15.65 -3 17.3 -3 19 C-3.33 19 -3.66 19 -4 19 C-4 17.35 -4 15.7 -4 14 Z " fill="#F97D53" transform="translate(555,622)"/>
<path d="M0 0 C0.66 0.33 1.32 0.66 2 1 C1.54625 1.4125 1.0925 1.825 0.625 2.25 C-1.05950374 4.06408095 -1.99265971 5.75285627 -3 8 C-3.99 8 -4.98 8 -6 8 C-6.33 8.99 -6.66 9.98 -7 11 C-7.33 10.01 -7.66 9.02 -8 8 C-5.33333333 5.33333333 -2.66666667 2.66666667 0 0 Z " fill="#72C4E1" transform="translate(742,377)"/>
<path d="M0 0 C2.61724095 2.36797991 4.32861729 4.89600354 6 8 C6 8.66 6 9.32 6 10 C5.01 10 4.02 10 3 10 C-0.22265625 4.82421875 -0.22265625 4.82421875 -1 3 C-0.67 2.01 -0.34 1.02 0 0 Z " fill="#EE739D" transform="translate(536,353)"/>
<path d="M0 0 C1.5 1.375 1.5 1.375 3 3 C3 5 3 5 1.3203125 6.69140625 C0.59585938 7.30886719 -0.12859375 7.92632813 -0.875 8.5625 C-1.59429688 9.18253906 -2.31359375 9.80257812 -3.0546875 10.44140625 C-5 12 -5 12 -7 13 C-5.88193568 10.48435529 -4.70466017 8.64201233 -2.9375 6.5 C-1.13355073 4.17232353 -0.42308458 2.8558209 0 0 Z " fill="#DA474C" transform="translate(538,523)"/>
<path d="M0 0 C0.66 0.33 1.32 0.66 2 1 C-0.44131455 5.76056338 -0.44131455 5.76056338 -2.75 6.75 C-3.4925 6.8325 -4.235 6.915 -5 7 C-6.2375 7.185625 -7.475 7.37125 -8.75 7.5625 C-9.8225 7.706875 -10.895 7.85125 -12 8 C-3 2 -3 2 0 2 C0 1.34 0 0.68 0 0 Z " fill="#DD5594" transform="translate(452,456)"/>
<path d="M0 0 C2.93200474 2.85276137 5.64315404 5.65079784 8 9 C7.67 9.66 7.34 10.32 7 11 C0.13785558 5.9059081 0.13785558 5.9059081 -0.4375 2.125 C-0.2209375 1.073125 -0.2209375 1.073125 0 0 Z " fill="#52C5E7" transform="translate(762,668)"/>
<path d="M0 0 C3.33557632 2.9905167 5.15083921 5.93184627 7 10 C6.01 10 5.02 10 4 10 C2.578125 8.57421875 2.578125 8.57421875 1.25 6.6875 C0.80140625 6.07261719 0.3528125 5.45773437 -0.109375 4.82421875 C-1 3 -1 3 0 0 Z " fill="#3774B5" transform="translate(601,603)"/>
<path d="M0 0 C0 3.99282941 -1.47808076 5.15331592 -4 8.1875 C-4.7425 9.08855469 -5.485 9.98960937 -6.25 10.91796875 C-6.8275 11.60503906 -7.405 12.29210937 -8 13 C-8.33 12.34 -8.66 11.68 -9 11 C-7.68823998 9.35357683 -6.3755713 7.70787757 -5.0625 6.0625 C-4.33160156 5.14597656 -3.60070312 4.22945312 -2.84765625 3.28515625 C-1 1 -1 1 0 0 Z " fill="#2D5BA5" transform="translate(623,563)"/>
<path d="M0 0 C-0.33 1.32 -0.66 2.64 -1 4 C-1.66 4 -2.32 4 -3 4 C-3.433125 5.2065625 -3.433125 5.2065625 -3.875 6.4375 C-5 9 -5 9 -7 10 C-7.33 9.01 -7.66 8.02 -8 7 C-6.85546875 5.17578125 -6.85546875 5.17578125 -5.1875 3.3125 C-4.37345703 2.37857422 -4.37345703 2.37857422 -3.54296875 1.42578125 C-2 0 -2 0 0 0 Z " fill="#43A6D6" transform="translate(713,414)"/>
<path d="M0 0 C3.08089673 2.77280706 4.68775452 5.06326356 6 9 C5.01 8.67 4.02 8.34 3 8 C3 7.34 3 6.68 3 6 C1.68 5.34 0.36 4.68 -1 4 C-0.67 2.68 -0.34 1.36 0 0 Z " fill="#5ACBE9" transform="translate(776,687)"/>
<path d="M0 0 C0.66 0 1.32 0 2 0 C1.67 1.32 1.34 2.64 1 4 C0.34 4 -0.32 4 -1 4 C-1.28875 4.61875 -1.5775 5.2375 -1.875 5.875 C-3 8 -3 8 -5 10 C-4.49890042 5.61537866 -3.01704885 3.1999003 0 0 Z " fill="#4696CA" transform="translate(669,468)"/>
<path d="M0 0 C0.80824219 0.28746094 1.61648438 0.57492187 2.44921875 0.87109375 C3.06410156 1.09925781 3.67898438 1.32742188 4.3125 1.5625 C4.3125 1.8925 4.3125 2.2225 4.3125 2.5625 C2.68831255 2.64340971 1.06298255 2.70164995 -0.5625 2.75 C-1.46742188 2.78480469 -2.37234375 2.81960938 -3.3046875 2.85546875 C-4.48417969 2.71044922 -4.48417969 2.71044922 -5.6875 2.5625 C-6.3475 1.5725 -7.0075 0.5825 -7.6875 -0.4375 C-4.20878379 -1.59707207 -3.34530355 -1.21206651 0 0 Z " fill="#DF5C2C" transform="translate(401.6875,726.4375)"/>
<path d="M0 0 C1.32 0.33 2.64 0.66 4 1 C4 1.66 4 2.32 4 3 C4.66 3 5.32 3 6 3 C6.12375 3.804375 6.2475 4.60875 6.375 5.4375 C6.684375 6.7059375 6.684375 6.7059375 7 8 C7.66 8.33 8.32 8.66 9 9 C8.01 9 7.02 9 6 9 C4.39453125 7.03125 4.39453125 7.03125 2.8125 4.5 C2.28269531 3.6646875 1.75289062 2.829375 1.20703125 1.96875 C0.80871094 1.3190625 0.41039062 0.669375 0 0 Z " fill="#3D86C3" transform="translate(617,628)"/>
<path d="M0 0 C0.66 0 1.32 0 2 0 C0.33333333 3.33333333 -1.33333333 6.66666667 -3 10 C-3.66 10 -4.32 10 -5 10 C-4.67 8.35 -4.34 6.7 -4 5 C-3.34 5 -2.68 5 -2 5 C-1.7834375 4.0409375 -1.7834375 4.0409375 -1.5625 3.0625 C-1 1 -1 1 0 0 Z " fill="#56B2DA" transform="translate(723,399)"/>
<path d="M0 0 C1.98 0 3.96 0 6 0 C6.33 0.66 6.66 1.32 7 2 C6.01 3.485 6.01 3.485 5 5 C2.5 3.625 2.5 3.625 0 2 C0 1.34 0 0.68 0 0 Z " fill="#B51F5B" transform="translate(449,395)"/>
<path d="M0 0 C3.00617269 3.00617269 2.59585316 5.82381598 3 10 C2.34 10 1.68 10 1 10 C-0.60725635 6.78548731 -0.05748185 3.56387464 0 0 Z " fill="#41C4E5" transform="translate(785,705)"/>
<path d="M0 0 C0.66 0.33 1.32 0.66 2 1 C-0.46153846 6.66153846 -0.46153846 6.66153846 -3.1875 8.375 C-3.785625 8.58125 -4.38375 8.7875 -5 9 C-4.42647107 5.12867972 -2.51295648 2.91827204 0 0 Z " fill="#49B8E0" transform="translate(749,366)"/>
<path d="M0 0 C1.32 0.33 2.64 0.66 4 1 C4.66 3.31 5.32 5.62 6 8 C1.125 3.375 1.125 3.375 0 0 Z " fill="#409BCE" transform="translate(706,595)"/>
<path d="M0 0 C2.88575819 0.39803561 3.82189513 0.79009069 5.75 3.0625 C6.1625 3.701875 6.575 4.34125 7 5 C6.67 5.66 6.34 6.32 6 7 C3.00675737 5.9024777 2.15389099 5.32317108 0.75 2.375 C0.5025 1.59125 0.255 0.8075 0 0 Z " fill="#5587C1" transform="translate(665,539)"/>
<path d="M0 0 C-1.1858237 3.37503669 -2.27573689 5.64722731 -5 8 C-5.1875 5.125 -5.1875 5.125 -5 2 C-2 0 -2 0 0 0 Z " fill="#DA4D8C" transform="translate(538,494)"/>
<path d="M0 0 C0.33 0.99 0.66 1.98 1 3 C1.66 3.33 2.32 3.66 3 4 C1.35 5.98 -0.3 7.96 -2 10 C-3.39195915 5.82412255 -1.82323219 3.86525224 0 0 Z " fill="#DFCBD7" transform="translate(550,467)"/>
<path d="M0 0 C2.5 2.3125 2.5 2.3125 5 5 C5 5.99 5 6.98 5 8 C2 7 2 7 0 4 C0 2.68 0 1.36 0 0 Z " fill="#4AA9D6" transform="translate(718,609)"/>
<path d="M0 0 C2.96404505 2.80804268 5.44499019 5.18315774 7 9 C3.64564078 7.61198929 1.88709697 6.11371 0 3 C0 2.01 0 1.02 0 0 Z " fill="#264991" transform="translate(585,583)"/>
<path d="M0 0 C2.29013653 3.4352048 2.17842973 4.985331 2 9 C1.34 9 0.68 9 0 9 C-1.125 2.25 -1.125 2.25 0 0 Z " fill="#2CBEE4" transform="translate(788,715)"/>
<path d="M0 0 C0.66 0 1.32 0 2 0 C2.33 0.66 2.66 1.32 3 2 C3.99 2.33 4.98 2.66 6 3 C6.33 4.65 6.66 6.3 7 8 C5.8274869 7.04882866 4.66212985 6.08882991 3.5 5.125 C2.8503125 4.59132813 2.200625 4.05765625 1.53125 3.5078125 C1.0259375 3.01023437 0.520625 2.51265625 0 2 C0 1.34 0 0.68 0 0 Z " fill="#D73468" transform="translate(305,319)"/>
<path d="M0 0 C5.75 1.75 5.75 1.75 8 4 C2.25 4.125 2.25 4.125 0 3 C0 2.01 0 1.02 0 0 Z " fill="#EB5F9B" transform="translate(484,307)"/>
<path d="M0 0 C0.66 0 1.32 0 2 0 C2.33 0.66 2.66 1.32 3 2 C3.99 2.33 4.98 2.66 6 3 C6 4.65 6 6.3 6 8 C1.125 3.375 1.125 3.375 0 0 Z " fill="#42A4D6" transform="translate(657,680)"/>
<path d="M0 0 C1.65 1.65 3.3 3.3 5 5 C4.67 5.66 4.34 6.32 4 7 C3.01 6.67 2.02 6.34 1 6 C0.67 4.02 0.34 2.04 0 0 Z " fill="#4E9BCB" transform="translate(699,583)"/>
<path d="M0 0 C0.99 0.33 1.98 0.66 3 1 C2.1875 2.9375 2.1875 2.9375 1 5 C0.01 5.33 -0.98 5.66 -2 6 C-1.125 1.125 -1.125 1.125 0 0 Z " fill="#58B8DE" transform="translate(728,392)"/>
</svg>
